<svg height="480pt" viewBox="-22 0 480 480" width="480pt" xmlns="http://www.w3.org/2000/svg"><path d="m40 8h288c17.671875 0 32 14.328125 32 32v400c0 17.671875-14.328125 32-32 32h-288c-17.671875 0-32-14.328125-32-32v-400c0-17.671875 14.328125-32 32-32zm0 0" fill="#ffe477"/><path d="m124.6875 303.433594c-3 3-4.6875 7.066406-4.6875 11.308594v53.257812c0 4.417969 3.582031 8 8 8h53.257812c4.242188 0 8.308594-1.6875 11.308594-4.6875l221.601563-221.601562c18.746093-18.746094 18.746093-49.140626 0-67.886719-18.746094-18.746094-49.140625-18.746094-67.886719 0zm0 0" fill="#ffb655"/><g fill="#3e3d42"><path d="m419.816406 76.183594c-21.886718-21.832032-57.3125-21.832032-79.199218 0l-221.601563 221.601562c-4.503906 4.492188-7.03125 10.597656-7.015625 16.957032v53.257812c0 8.835938 7.164062 16 16 16h53.257812c6.367188.015625 12.476563-2.515625 16.964844-7.03125l221.601563-221.601562c21.820312-21.886719 21.816406-57.300782-.007813-79.183594zm-11.320312 67.886718-221.601563 221.601563c-1.5 1.503906-3.539062 2.347656-5.664062 2.34375h-53.230469v-53.273437c-.003906-2.121094.839844-4.15625 2.34375-5.652344l221.601562-221.601563c15.640626-15.503906 40.871094-15.449219 56.441407.125 15.574219 15.570313 15.628906 40.800781.125 56.441407zm0 0"/><path d="m360 240c-4.417969 0-8 3.582031-8 8v192c0 13.253906-10.746094 24-24 24h-288c-13.253906 0-24-10.746094-24-24v-400c0-13.253906 10.746094-24 24-24h288c13.253906 0 24 10.746094 24 24 0 4.417969 3.582031 8 8 8s8-3.582031 8-8c-.027344-22.082031-17.917969-39.9726562-40-40h-288c-22.082031.0273438-39.9726562 17.917969-40 40v400c.0273438 22.082031 17.917969 39.972656 40 40h288c22.082031-.027344 39.972656-17.917969 40-40v-192c0-4.417969-3.582031-8-8-8zm0 0"/></g></svg>