<svg width="359" height="450" viewBox="0 0 359 450" fill="none" xmlns="http://www.w3.org/2000/svg">
<g clip-path="url(#clip0)">
<path d="M345.188 85H167.062C159.3 85 153 91.3 153 99.0625C153 106.825 159.3 113.125 167.062 113.125H345.188C352.95 113.125 359.25 106.825 359.25 99.0625C359.25 91.3 352.95 85 345.188 85Z" fill="#FF0000"/>
<path d="M344.188 169H166.062C158.3 169 152 175.3 152 183.062C152 190.825 158.3 197.125 166.062 197.125H344.188C351.95 197.125 358.25 190.825 358.25 183.062C358.25 175.3 351.95 169 344.188 169Z" fill="#FF0000"/>
<path d="M345.188 0H167.062C159.3 0 153 6.3 153 14.0625C153 21.825 159.3 28.125 167.062 28.125H345.188C352.95 28.125 359.25 21.825 359.25 14.0625C359.25 6.3 352.95 0 345.188 0Z" fill="#FF0000"/>
<path d="M344.238 253.125H166.113C158.351 253.125 152.051 259.425 152.051 267.188C152.051 274.95 158.351 281.25 166.113 281.25H344.238C352.001 281.25 358.301 274.95 358.301 267.188C358.301 259.425 352.001 253.125 344.238 253.125Z" fill="#FF0000"/>
<path d="M344.188 338H166.062C158.3 338 152 344.3 152 352.062C152 359.825 158.3 366.125 166.062 366.125H344.188C351.95 366.125 358.25 359.825 358.25 352.062C358.25 344.3 351.95 338 344.188 338Z" fill="#FF0000"/>
<path d="M344.238 421.875H166.113C158.351 421.875 152.051 428.175 152.051 435.938C152.051 443.7 158.351 450 166.113 450H344.238C352.001 450 358.301 443.7 358.301 435.938C358.301 428.175 352.001 421.875 344.238 421.875Z" fill="#FF0000"/>
<path d="M56.25 112.5C87.316 112.5 112.5 87.316 112.5 56.25C112.5 25.184 87.316 0 56.25 0C25.184 0 0 25.184 0 56.25C0 87.316 25.184 112.5 56.25 112.5Z" fill="#FF0000"/>
<path d="M56.25 281.5C87.316 281.5 112.5 256.316 112.5 225.25C112.5 194.184 87.316 169 56.25 169C25.184 169 0 194.184 0 225.25C0 256.316 25.184 281.5 56.25 281.5Z" fill="#FF0000"/>
<path d="M56.25 450.5C87.316 450.5 112.5 425.316 112.5 394.25C112.5 363.184 87.316 338 56.25 338C25.184 338 0 363.184 0 394.25C0 425.316 25.184 450.5 56.25 450.5Z" fill="#FF0000"/>
</g>
<defs>
<clipPath id="clip0">
<rect width="358.594" height="450" fill="white"/>
</clipPath>
</defs>
</svg>
