<?xml version="1.0" encoding="utf-8"?><svg xml:space="preserve" viewBox="0 0 100 100" y="0" x="0" xmlns="http://www.w3.org/2000/svg" id="Layer_1" version="1.1" width="200px" height="200px" xmlns:xlink="http://www.w3.org/1999/xlink" style="width:100%;height:100%;background-size:initial;background-repeat-y:initial;background-repeat-x:initial;background-position-y:initial;background-position-x:initial;background-origin:initial;background-color:initial;background-clip:initial;background-attachment:initial;animation-play-state:paused" ><g class="ldl-scale" style="transform-origin:50% 50%;transform:rotate(0deg) scale(0.8, 0.8);animation-play-state:paused" ><path fill="#323232" d="M50 21.098c.499 0 .998.2 1.365.601l31.21 25.24h5.568c1.612 0 2.455-1.916 1.365-3.104L51.365 11.032A1.846 1.846 0 0 0 50 10.431c-.499 0-.998.2-1.365.601L10.491 43.834c-1.089 1.188-.247 3.104 1.365 3.104h5.568l31.21-25.24c.368-.4.867-.6 1.366-.6z" id="XMLID_142_" style="fill:rgb(255, 0, 0);animation-play-state:paused" ></path>
<path fill="#999998" d="M50 42.431c.499 0 .998.2 1.365.601l31.21 25.24h5.568c1.612 0 2.455-1.916 1.365-3.104L51.365 32.365A1.846 1.846 0 0 0 50 31.764c-.499 0-.998.2-1.365.601L10.491 65.167c-1.089 1.188-.247 3.104 1.365 3.104h5.568l31.21-25.24c.368-.4.867-.6 1.366-.6z" id="XMLID_139_" style="fill:rgb(255, 189, 68);animation-play-state:paused" ></path>
<path fill="#cccccb" d="M50 63.79c.499 0 .998.2 1.365.601l31.21 25.24h5.568c1.612 0 2.455-1.916 1.365-3.104L51.365 53.724A1.846 1.846 0 0 0 50 53.123c-.499 0-.998.2-1.365.601L10.491 86.527c-1.089 1.188-.247 3.104 1.365 3.104h5.568l31.21-25.24A1.846 1.846 0 0 1 50 63.79z" id="XMLID_143_" style="fill:rgb(0, 218, 78);animation-play-state:paused" ></path>
<metadata xmlns:d="https://loading.io/stock/" style="animation-play-state:paused" ><d:name style="animation-play-state:paused" >up</d:name>


<d:tags style="animation-play-state:paused" >north,upload,top,direction,way,dart,chevron,up,arrow</d:tags>


<d:license style="animation-play-state:paused" >by</d:license>


<d:slug style="animation-play-state:paused" >hvz6zf</d:slug></metadata></g><!-- generated by https://loading.io/ --></svg>