<svg xmlns="http://www.w3.org/2000/svg" fill="none" viewBox="1.6 0.84 410.61 94.46">
<path d="M35.736 93.896C33.5173 93.896 31.768 93.4693 30.488 92.616C29.208 91.7627 28.2693 90.7813 27.672 89.672C27.16 88.5627 26.8187 87.7947 26.648 87.368L2.584 17.608C1.47467 14.024 1.304 11.3787 2.072 9.672C2.84 7.87999 5.05867 6.38666 8.728 5.19199C11.1173 4.42399 13.0373 4.08266 14.488 4.168C16.024 4.25333 17.2613 4.85066 18.2 5.96C19.224 7.06933 20.12 8.81866 20.888 11.208L36.888 58.696L50.328 11.848C50.584 10.9947 50.968 10.0133 51.48 8.904C52.0773 7.79467 53.016 6.81333 54.296 5.96C55.576 5.10666 57.368 4.67999 59.672 4.67999C62.3173 4.67999 64.28 5.14933 65.56 6.088C66.9253 7.02666 67.864 8.05066 68.376 9.16C68.888 10.2693 69.272 11.1227 69.528 11.72L83.096 58.952L98.968 11.336C99.736 8.94667 100.589 7.19733 101.528 6.088C102.552 4.89333 103.832 4.21066 105.368 4.03999C106.989 3.86933 108.995 4.21066 111.384 5.064C113.944 6.00266 115.736 6.98399 116.76 8.008C117.784 9.032 118.296 10.312 118.296 11.848C118.381 13.2987 118.083 15.2187 117.4 17.608L93.336 87.368C93.1653 87.88 92.7813 88.6907 92.184 89.8C91.672 90.824 90.776 91.7627 89.496 92.616C88.3013 93.4693 86.5093 93.896 84.12 93.896C81.816 93.896 79.9813 93.384 78.616 92.36C77.2507 91.336 76.2693 90.2693 75.672 89.16C75.16 87.9653 74.8187 87.1547 74.648 86.728L59.928 38.984L45.208 86.728C45.1227 87.1547 44.7813 87.9653 44.184 89.16C43.5867 90.3547 42.6053 91.464 41.24 92.488C39.96 93.4267 38.1253 93.896 35.736 93.896ZM148.992 95.304C143.019 95.304 137.856 94.3227 133.504 92.36C129.237 90.3973 125.739 87.8373 123.008 84.68C120.277 81.4373 118.229 77.8533 116.864 73.928C115.584 70.0027 114.944 66.0773 114.944 62.152C114.944 55.752 116.395 50.0773 119.296 45.128C122.197 40.1787 126.208 36.296 131.328 33.48C136.448 30.5787 142.336 29.128 148.992 29.128C153.941 29.128 158.208 29.9387 161.792 31.56C165.461 33.096 168.448 35.144 170.752 37.704C173.141 40.1787 174.891 42.8667 176 45.768C177.195 48.6693 177.792 51.4427 177.792 54.088C177.792 58.7813 176.64 62.28 174.336 64.584C172.117 66.8027 169.259 67.912 165.76 67.912H135.296C135.467 70.1307 136.235 72.008 137.6 73.544C139.051 75.08 140.843 76.2747 142.976 77.128C145.109 77.9813 147.371 78.408 149.76 78.408C151.808 78.408 153.6 78.3227 155.136 78.152C156.672 77.896 157.995 77.5973 159.104 77.256C160.213 76.8293 161.237 76.4453 162.176 76.104C163.115 75.6773 163.925 75.336 164.608 75.08C165.376 74.824 166.101 74.6533 166.784 74.568C168.064 74.4827 169.216 74.8667 170.24 75.72C171.349 76.488 172.331 77.6827 173.184 79.304C173.781 80.2427 174.165 81.1387 174.336 81.992C174.592 82.8453 174.72 83.6987 174.72 84.552C174.72 86.6 173.653 88.4347 171.52 90.056C169.472 91.6773 166.528 92.9573 162.688 93.896C158.933 94.8347 154.368 95.304 148.992 95.304ZM135.296 57.416H155.52C156.885 57.416 157.867 57.2027 158.464 56.776C159.147 56.264 159.488 55.3253 159.488 53.96C159.488 52.424 159.019 51.1013 158.08 49.992C157.141 48.7973 155.861 47.9013 154.24 47.304C152.704 46.6213 150.912 46.28 148.864 46.28C146.219 46.28 143.872 46.792 141.824 47.816C139.776 48.84 138.155 50.2053 136.96 51.912C135.851 53.6187 135.296 55.4533 135.296 57.416ZM210.574 94.152C207.075 94.152 203.961 93.9387 201.23 93.512C198.585 93.1707 196.281 92.488 194.318 91.464C192.441 90.44 190.905 89.032 189.71 87.24C188.515 85.448 187.619 83.144 187.022 80.328C186.51 77.4267 186.254 73.8853 186.254 69.704V10.568C186.254 8.86133 186.382 7.28266 186.638 5.83199C186.979 4.38133 187.833 3.18666 189.198 2.24799C190.563 1.30933 192.782 0.839996 195.854 0.839996C198.926 0.839996 201.102 1.30933 202.382 2.24799C203.747 3.18666 204.601 4.38133 204.942 5.83199C205.283 7.28266 205.454 8.86133 205.454 10.568V68.808C205.454 70.1733 205.497 71.3253 205.582 72.264C205.753 73.1173 206.009 73.8 206.35 74.312C206.777 74.824 207.331 75.1653 208.014 75.336C208.697 75.5067 209.593 75.592 210.702 75.592C211.726 75.592 212.75 75.72 213.774 75.976C214.883 76.232 215.822 77 216.59 78.28C217.358 79.56 217.742 81.6933 217.742 84.68C217.742 87.752 217.358 89.9707 216.59 91.336C215.822 92.7013 214.883 93.512 213.774 93.768C212.75 94.024 211.683 94.152 210.574 94.152ZM251.89 94.024C248.05 94.024 244.338 93.2133 240.754 91.592C237.255 89.8853 234.141 87.5387 231.41 84.552C228.679 81.5653 226.503 78.152 224.882 74.312C223.346 70.3867 222.578 66.248 222.578 61.896C222.578 57.7147 223.346 53.7467 224.882 49.992C226.503 46.152 228.679 42.7813 231.41 39.88C234.226 36.8933 237.383 34.5467 240.882 32.84C244.381 31.1333 248.05 30.28 251.89 30.28C255.986 30.28 259.57 31.1333 262.642 32.84C265.799 34.4613 268.445 36.7227 270.578 39.624C272.711 42.5253 274.29 45.896 275.314 49.736C276.423 53.576 277.021 57.5867 277.106 61.768C277.191 66.12 276.679 70.216 275.57 74.056C274.546 77.896 272.967 81.3093 270.834 84.296C268.701 87.2827 266.055 89.672 262.898 91.464C259.826 93.1707 256.157 94.024 251.89 94.024ZM254.45 75.08C256.754 75.08 258.802 74.5253 260.594 73.416C262.471 72.2213 263.965 70.6427 265.074 68.68C266.269 66.7173 266.866 64.5413 266.866 62.152C266.866 59.6773 266.311 57.5013 265.202 55.624C264.093 53.6613 262.599 52.1253 260.722 51.016C258.845 49.9067 256.711 49.352 254.322 49.352C252.018 49.352 249.885 49.9067 247.922 51.016C246.045 52.1253 244.551 53.6613 243.442 55.624C242.418 57.5013 241.906 59.6773 241.906 62.152C241.906 64.5413 242.461 66.7173 243.57 68.68C244.679 70.6427 246.215 72.2213 248.178 73.416C250.141 74.5253 252.231 75.08 254.45 75.08ZM276.85 94.152C273.949 94.152 271.773 93.6827 270.322 92.744C268.871 91.8053 267.933 90.3547 267.506 88.392V10.824C267.506 9.20266 267.591 7.66666 267.762 6.216C268.018 4.68 268.786 3.44266 270.066 2.504C271.346 1.56533 273.565 1.09599 276.722 1.09599C279.879 1.09599 282.098 1.56533 283.378 2.504C284.743 3.35733 285.554 4.50933 285.81 5.96C286.151 7.41066 286.322 8.98933 286.322 10.696V84.424C286.322 86.0453 286.151 87.624 285.81 89.16C285.554 90.6107 284.743 91.8053 283.378 92.744C282.098 93.6827 279.922 94.152 276.85 94.152ZM328.617 95.304C322.644 95.304 317.481 94.3227 313.129 92.36C308.862 90.3973 305.364 87.8373 302.633 84.68C299.902 81.4373 297.854 77.8533 296.489 73.928C295.209 70.0027 294.569 66.0773 294.569 62.152C294.569 55.752 296.02 50.0773 298.921 45.128C301.822 40.1787 305.833 36.296 310.953 33.48C316.073 30.5787 321.961 29.128 328.617 29.128C333.566 29.128 337.833 29.9387 341.417 31.56C345.086 33.096 348.073 35.144 350.377 37.704C352.766 40.1787 354.516 42.8667 355.625 45.768C356.82 48.6693 357.417 51.4427 357.417 54.088C357.417 58.7813 356.265 62.28 353.961 64.584C351.742 66.8027 348.884 67.912 345.385 67.912H314.921C315.092 70.1307 315.86 72.008 317.225 73.544C318.676 75.08 320.468 76.2747 322.601 77.128C324.734 77.9813 326.996 78.408 329.385 78.408C331.433 78.408 333.225 78.3227 334.761 78.152C336.297 77.896 337.62 77.5973 338.729 77.256C339.838 76.8293 340.862 76.4453 341.801 76.104C342.74 75.6773 343.55 75.336 344.233 75.08C345.001 74.824 345.726 74.6533 346.409 74.568C347.689 74.4827 348.841 74.8667 349.865 75.72C350.974 76.488 351.956 77.6827 352.809 79.304C353.406 80.2427 353.79 81.1387 353.961 81.992C354.217 82.8453 354.345 83.6987 354.345 84.552C354.345 86.6 353.278 88.4347 351.145 90.056C349.097 91.6773 346.153 92.9573 342.313 93.896C338.558 94.8347 333.993 95.304 328.617 95.304ZM314.921 57.416H335.145C336.51 57.416 337.492 57.2027 338.089 56.776C338.772 56.264 339.113 55.3253 339.113 53.96C339.113 52.424 338.644 51.1013 337.705 49.992C336.766 48.7973 335.486 47.9013 333.865 47.304C332.329 46.6213 330.537 46.28 328.489 46.28C325.844 46.28 323.497 46.792 321.449 47.816C319.401 48.84 317.78 50.2053 316.585 51.912C315.476 53.6187 314.921 55.4533 314.921 57.416ZM375.223 94.152C372.066 94.152 369.804 93.7253 368.439 92.872C367.159 91.9333 366.348 90.696 366.007 89.16C365.751 87.624 365.623 86.0453 365.623 84.424V39.752C365.623 38.0453 365.794 36.4667 366.135 35.016C366.476 33.5653 367.287 32.4133 368.567 31.56C369.932 30.6213 372.194 30.152 375.351 30.152C378.338 30.152 380.471 30.5787 381.751 31.432C383.116 32.2 383.97 33.1387 384.311 34.248C384.652 35.272 384.823 36.168 384.823 36.936L383.287 37.704C383.458 37.3627 383.884 36.7653 384.567 35.912C385.335 34.9733 386.359 34.0347 387.639 33.096C388.919 32.072 390.455 31.2187 392.247 30.536C394.124 29.8533 396.258 29.512 398.647 29.512C399.586 29.512 400.61 29.5973 401.719 29.768C402.914 29.8533 404.108 30.1093 405.303 30.536C406.583 30.8773 407.735 31.3893 408.759 32.072C409.783 32.6693 410.594 33.4373 411.191 34.376C411.874 35.3147 412.215 36.4667 412.215 37.832C412.215 41.3307 411.404 44.3173 409.783 46.792C408.162 49.1813 406.114 50.376 403.639 50.376C402.188 50.376 401.164 50.248 400.567 49.992C399.97 49.736 399.458 49.48 399.031 49.224C398.69 48.968 398.263 48.7547 397.751 48.584C397.239 48.328 396.3 48.2 394.935 48.2C393.655 48.2 392.418 48.3707 391.223 48.712C390.114 49.0533 389.047 49.608 388.023 50.376C387.084 51.0587 386.316 51.9547 385.719 53.064C385.207 54.088 384.951 55.24 384.951 56.52V84.68C384.951 86.3013 384.78 87.88 384.439 89.416C384.183 90.8667 383.372 92.0187 382.007 92.872C380.642 93.7253 378.38 94.152 375.223 94.152Z" fill="white"/>
</svg>