<?xml version="1.0" encoding="iso-8859-1"?>
<!-- Generator: Adobe Illustrator 19.0.0, SVG Export Plug-In . SVG Version: 6.00 Build 0)  -->
<svg version="1.1" id="Layer_1" xmlns="http://www.w3.org/2000/svg" xmlns:xlink="http://www.w3.org/1999/xlink" x="0px" y="0px"
	 viewBox="0 0 511.999 511.999" style="enable-background:new 0 0 511.999 511.999;" xml:space="preserve">
<rect x="34.339" y="140.019" style="fill:#656D78;" width="35.664" height="172.66"/>
<rect x="181.999" y="160.999" style="fill:#ED5564;" width="300" height="126"/>
<rect x="181.999" y="292.999" style="fill:#FFCE54;" width="300" height="194"/>
<path style="fill:#434A54;" d="M260.003,393.671c0,11.218-7.016,20.327-15.664,20.327s-15.664-9.109-15.664-20.327
	c0-11.234,7.015-20.344,15.664-20.344S260.003,382.437,260.003,393.671z"/>
<g>
	<path style="fill:#F5F7FA;" d="M260.003,224c0,9.937-7.016,18-15.664,18s-15.664-8.062-15.664-18s7.015-18,15.664-18
		S260.003,214.063,260.003,224z"/>
	<path style="fill:#F5F7FA;" d="M350.955,227.36c0,11.796-8.125,21.359-18.141,21.359s-18.141-9.562-18.141-21.359
		s8.125-21.359,18.141-21.359S350.955,215.563,350.955,227.36z"/>
	<path style="fill:#F5F7FA;" d="M429.674,223.985c0,8.656-6.109,15.671-13.672,15.671c-7.547,0-13.656-7.016-13.656-15.671
		c0-8.641,6.109-15.656,13.656-15.656C423.564,208.329,429.674,215.344,429.674,223.985z"/>
</g>
<g>
	<path style="fill:#080808;" d="M480.001,149.329H181.339c-5.891,0-10.671,4.781-10.671,10.672v222.561
		c-32.883-1.812-54.961-5.406-71.015-11.25c-22.484-8.188-33.141-20.828-35.242-42.624c12.203-4.516,20.93-16.266,20.93-30.031V192
		c5.891,0,10.664-4.781,10.664-10.672V160c0-5.891-4.773-10.672-10.664-10.672v-10.672c0-5.875-4.781-10.656-10.672-10.656H64.004
		V79.564l70.945-60.796c4.469-3.828,4.984-10.578,1.156-15.047c-3.836-4.468-10.57-4.984-15.047-1.156l-74.663,64
		c-2.359,2.031-3.727,4.984-3.727,8.094v53.343H32.005c-5.891,0-10.664,4.781-10.664,10.656v159.999c0,14.047,9.086,26,21.68,30.281
		c2.469,31.187,18.312,51.124,49.335,62.405c19.945,7.25,46.203,10.906,78.312,12.624v86.688c0,5.906,4.781,10.672,10.671,10.672
		h10.664c0,5.891,4.773,10.672,10.664,10.672s10.672-4.781,10.672-10.672h234.663c0,5.891,4.781,10.672,10.656,10.672
		c5.905,0,10.687-4.781,10.687-10.672h10.656c5.891,0,10.656-4.766,10.656-10.672V160.001
		C490.657,154.11,485.892,149.329,480.001,149.329z M42.669,298.656h21.335c0,5.891-4.781,10.672-10.664,10.672
		C47.458,309.328,42.669,304.547,42.669,298.656z M64.004,149.329v127.999H42.669V149.329H64.004z M469.345,170.657v106.671H192.003
		V170.657H469.345z M192.003,479.998V404.81c7.445,0.219,15.164,0.344,23.141,0.422c4.375,12.469,16.25,21.422,30.195,21.422
		c17.641,0,32.008-14.344,32.008-31.999c0-17.641-14.367-32-32.008-32c-13.867,0-25.703,8.875-30.132,21.25
		c-8.203-0.094-15.922-0.25-23.203-0.469v-84.78h277.341v181.342L192.003,479.998L192.003,479.998z M240.003,385.437
		c1.578-0.906,3.391-1.438,5.336-1.438c5.883,0,10.664,4.781,10.664,10.656c0,5.891-4.781,10.671-10.664,10.671
		c-1.945,0-3.758-0.531-5.336-1.438c3.188-1.843,5.336-5.28,5.336-9.233C245.339,390.718,243.19,387.28,240.003,385.437z"/>
	<path style="fill:#080808;" d="M437.346,362.655H320.002c-5.891,0-10.656,4.781-10.656,10.672s4.765,10.672,10.656,10.672h117.344
		c5.875,0,10.656-4.781,10.656-10.672S443.221,362.655,437.346,362.655z"/>
	<path style="fill:#080808;" d="M437.346,320H320.002c-5.891,0-10.656,4.781-10.656,10.656c0,5.906,4.766,10.672,10.656,10.672
		h117.344c5.875,0,10.656-4.766,10.656-10.672C448.002,324.781,443.221,320,437.346,320z"/>
	<path style="fill:#080808;" d="M245.339,256c17.641,0,32.008-14.359,32.008-32c0-17.656-14.367-32-32.008-32
		c-17.648,0-32,14.344-32,32C213.339,241.641,227.691,256,245.339,256z M245.339,213.329c5.883,0,10.664,4.797,10.664,10.672
		s-4.781,10.656-10.664,10.656s-10.672-4.781-10.672-10.656S239.456,213.329,245.339,213.329z"/>
	<path style="fill:#080808;" d="M330.658,256c17.656,0,32-14.359,32-32c0-17.656-14.344-32-32-32c-17.625,0-32,14.344-32,32
		C298.658,241.641,313.033,256,330.658,256z M330.658,213.329c5.891,0,10.688,4.797,10.688,10.672s-4.797,10.656-10.688,10.656
		c-5.875,0-10.656-4.781-10.656-10.656S324.783,213.329,330.658,213.329z"/>
	<path style="fill:#080808;" d="M416.002,256c17.656,0,32-14.359,32-32c0-17.656-14.344-32-32-32c-17.641,0-32,14.344-32,32
		C384.002,241.641,398.361,256,416.002,256z M416.002,213.329c5.875,0,10.656,4.797,10.656,10.672s-4.781,10.656-10.656,10.656
		s-10.656-4.781-10.656-10.656S410.127,213.329,416.002,213.329z"/>
	<path style="fill:#080808;" d="M362.658,426.654h-10.656v-10.656c0-5.891-4.781-10.672-10.656-10.672
		c-5.906,0-10.688,4.781-10.688,10.672v10.656h-10.656c-5.891,0-10.656,4.781-10.656,10.672s4.766,10.672,10.656,10.672h10.656
		v10.656c0,5.906,4.781,10.672,10.688,10.672c5.875,0,10.656-4.766,10.656-10.672v-10.656h10.656
		c5.906,0,10.688-4.781,10.688-10.672S368.564,426.654,362.658,426.654z"/>
	<path style="fill:#080808;" d="M437.346,426.654h-42.688c-5.875,0-10.656,4.781-10.656,10.672s4.781,10.672,10.656,10.672h42.688
		c5.875,0,10.656-4.781,10.656-10.672S443.221,426.654,437.346,426.654z"/>
</g>
<g>
</g>
<g>
</g>
<g>
</g>
<g>
</g>
<g>
</g>
<g>
</g>
<g>
</g>
<g>
</g>
<g>
</g>
<g>
</g>
<g>
</g>
<g>
</g>
<g>
</g>
<g>
</g>
<g>
</g>
</svg>
