<svg id="Capa_1" enable-background="new 0 0 512 512" height="512" viewBox="0 0 512 512" width="512" xmlns="http://www.w3.org/2000/svg"><g><g><g><path d="m221.711 187.815h-187.016c-15.017 0-27.191-12.174-27.191-27.191 0-15.017 12.174-27.191 27.191-27.191h187.016c15.017 0 27.191 12.174 27.191 27.191 0 15.017-12.174 27.191-27.191 27.191z" fill="#904f40"/><path d="m128.203 286.745c-43.479 0-78.726-35.247-78.726-78.726v-109.418c0-43.479 35.247-78.726 78.726-78.726 43.479 0 78.726 35.247 78.726 78.726v109.419c0 43.478-35.247 78.725-78.726 78.725z" fill="#b46e59"/><path d="m148.409 284.134c-6.448 1.713-13.208 2.617-20.201 2.617-43.486 0-78.732-35.246-78.732-78.732v-109.409c0-43.485 35.246-78.732 78.732-78.732 6.993 0 13.753.903 20.201 2.617-33.704 8.924-58.531 39.623-58.531 76.115v109.409c.001 36.493 24.827 67.191 58.531 76.115z" fill="#a55e4d"/><path d="m235.854 109.407c0 16.861-12.603 30.788-28.924 32.843v-19.53l-12.37 1.928c-4.131.646-8.24.953-12.317.953-32.938 0-63.08-20.472-74.741-52.193 0 21.786-17.666 39.452-39.452 39.452h-18.578v29.39c-7.477-.943-14.171-4.374-19.233-9.437-5.984-5.984-9.691-14.266-9.691-23.406 0-17.655 13.821-32.08 31.233-33.055-3.167-3.008-5.751-6.651-7.541-10.718-1.779-4.067-2.775-8.558-2.775-13.281 0-18.291 14.817-33.108 33.108-33.108h107.255c9.151 0 17.422 3.707 23.417 9.691 5.984 5.995 9.691 14.266 9.691 23.417 0 9.447-3.972 17.973-10.316 23.999 8.706.487 16.511 4.342 22.146 10.273 5.635 5.932 9.088 13.959 9.088 22.782z" fill="#30579d"/><path d="m80.917 52.353c0 4.724.995 9.214 2.775 13.281 1.79 4.067 4.374 7.71 7.541 10.718-17.412.975-31.233 15.4-31.233 33.055 0 1.165.063 2.319.18 3.453h-10.708v29.39c-7.477-.943-14.171-4.374-19.233-9.437-5.984-5.984-9.691-14.266-9.691-23.406 0-17.655 13.821-32.08 31.233-33.055-3.167-3.008-5.751-6.651-7.541-10.718-1.779-4.067-2.775-8.558-2.775-13.281 0-18.291 14.817-33.108 33.108-33.108h39.452c-18.291 0-33.108 14.817-33.108 33.108z" fill="#26457d"/></g><g><path d="m477.305 241.652h-187.016c-15.017 0-27.191-12.174-27.191-27.191 0-15.017 12.174-27.191 27.191-27.191h187.016c15.017 0 27.191 12.174 27.191 27.191.001 15.017-12.173 27.191-27.191 27.191z" fill="#eccda0"/><path d="m383.797 328.957c-43.479 0-78.726-35.247-78.726-78.726v-74.583c0-43.479 35.247-78.726 78.726-78.726 43.479 0 78.726 35.247 78.726 78.726v74.583c0 43.479-35.246 78.726-78.726 78.726z" fill="#fdf0db"/><path d="m404.004 326.346c-6.448 1.713-13.208 2.617-20.201 2.617-43.486 0-78.732-35.246-78.732-78.732v-74.573c0-43.485 35.246-78.732 78.732-78.732 6.993 0 13.753.903 20.201 2.617-33.704 8.924-58.531 39.623-58.531 76.115v74.573c0 36.492 24.827 67.191 58.531 76.115z" fill="#fbe2bd"/><path d="m316.328 81.471h6.917c20.978 0 37.983 17.006 37.983 37.983v.292c0 20.978-17.006 37.983-37.983 37.983h-6.917c-20.978 0-37.983-17.006-37.983-37.983v-.292c0-20.977 17.006-37.983 37.983-37.983z" fill="#b46e59"/><path d="m333.389 156.342c-3.231.91-6.633 1.385-10.141 1.385h-6.91c-20.981 0-37.993-16.999-37.993-37.98v-.29c0-20.981 17.012-37.98 37.993-37.98h6.91c3.508 0 6.91.475 10.141 1.385-16.062 4.418-27.852 19.122-27.852 36.595v.29c0 17.473 11.79 32.177 27.852 36.595z" fill="#a55e4d"/><path d="m354.635 108.394c0 30.154 24.444 54.598 54.598 54.598 49.045 0 88.804-39.759 88.804-88.804v-7.236h-103.949c-22.578 0-40.562 18.891-39.453 41.442z" fill="#b46e59"/><path d="m426.955 161.223c-5.723 1.161-11.658 1.767-17.724 1.767-30.16 0-54.596-24.436-54.596-54.596-1.108-22.551 16.88-41.435 39.457-41.435h31.571c-22.577 0-40.565 18.885-39.457 41.435 0 25.373 17.302 46.697 40.749 52.829z" fill="#a55e4d"/></g><g><path d="m230.053 210.376c-54.774 0-99.177 44.403-99.177 99.176v46.633h198.353v-46.633c0-54.773-44.402-99.176-99.176-99.176z" fill="#30579d"/><path d="m253.648 213.216c-43.381 10.58-75.578 49.693-75.578 96.336v46.632h-47.194v-46.632c0-54.777 44.398-99.175 99.175-99.175 8.134.001 16.035.975 23.597 2.839z" fill="#26457d"/><path d="m323.561 393.81h-187.016c-15.017 0-27.191-12.174-27.191-27.191 0-15.017 12.174-27.191 27.191-27.191h187.016c15.017 0 27.191 12.174 27.191 27.191 0 15.017-12.174 27.191-27.191 27.191z" fill="#eccda0"/><path d="m308.78 339.432v74.582c0 43.476-35.247 78.723-78.723 78.723-43.487 0-78.734-35.247-78.734-78.723v-74.582c0-3.897.286-8.145.837-12.635l71.278-43.169-13.388 39.452 75.08-39.896-22.252 47.639 43.116-15.876c1.822 8.927 2.786 17.284 2.786 24.485z" fill="#fdf0db"/><path d="m250.264 490.132c-6.45 1.705-13.207 2.616-20.208 2.616-43.487 0-78.734-35.247-78.734-78.734v-74.572c0-4.342.349-8.611 1.038-12.762l53.686-32.515c-9.024 12.805-14.319 28.426-14.319 45.277v74.572c0 36.497 24.826 67.19 58.537 76.118z" fill="#fbe2bd"/></g></g><g><path d="m162.805 193.698c-2.93-2.929-7.678-2.929-10.607 0-6.409 6.409-14.931 9.939-23.995 9.939-9.063 0-17.585-3.53-23.994-9.939-2.929-2.928-7.677-2.929-10.607 0-2.929 2.929-2.929 7.678 0 10.607 9.242 9.242 21.531 14.333 34.602 14.333s25.36-5.09 34.603-14.333c2.926-2.929 2.926-7.678-.002-10.607z"/><path d="m107.661 166.584c4.143 0 7.5-3.358 7.5-7.5v-15.903c0-4.142-3.357-7.5-7.5-7.5s-7.5 3.358-7.5 7.5v15.903c0 4.142 3.358 7.5 7.5 7.5z"/><path d="m148.744 166.584c4.143 0 7.5-3.358 7.5-7.5v-15.903c0-4.142-3.357-7.5-7.5-7.5s-7.5 3.358-7.5 7.5v15.903c0 4.142 3.358 7.5 7.5 7.5z"/><path d="m477.306 179.773h-7.275v-30.957c21.654-17.674 35.507-44.562 35.507-74.628v-7.236c0-4.142-3.357-7.5-7.5-7.5h-103.949c-12.993 0-25.083 5.183-34.042 14.594-3.052 3.206-5.583 6.756-7.585 10.549-8.062-6.784-18.322-10.617-29.215-10.617h-6.923c-25.078 0-45.48 20.402-45.48 45.48v.29c0 18.393 10.982 34.259 26.728 41.417v18.604h-7.28c-9.264 0-17.978 3.605-24.549 10.162-4.556 4.565-7.682 10.175-9.165 16.286-8.484-2.179-17.372-3.339-26.526-3.339-5.306 0-10.52.395-15.62 1.147v-8.717h7.28c9.264 0 17.978-3.605 24.544-10.157 6.549-6.55 10.156-15.259 10.156-24.523 0-13.2-7.489-24.894-18.628-30.734 3.542-6.045 5.568-13.058 5.568-20.486 0-10.454-3.957-20.378-11.146-27.949-4.162-4.376-9.157-7.72-14.638-9.87 3.16-5.872 4.874-12.493 4.874-19.241 0-10.838-4.22-21.034-11.892-28.718-7.675-7.662-17.874-11.882-28.719-11.882h-92.261c-4.143 0-7.5 3.358-7.5 7.5s3.357 7.5 7.5 7.5h92.26c6.843 0 13.278 2.663 18.112 7.489 4.835 4.843 7.498 11.275 7.498 18.111 0 7.08-2.836 13.672-7.984 18.561-2.17 2.06-2.907 5.213-1.877 8.022s3.633 4.737 6.62 4.905c6.517.366 12.603 3.194 17.132 7.956 4.526 4.767 7.019 11.023 7.019 17.616 0 9.831-5.601 18.521-13.92 22.794v-9.484c0-2.191-.958-4.272-2.623-5.698-1.664-1.424-3.864-2.051-6.033-1.713l-12.38 1.932c-3.621.57-7.373.859-11.153.859-30.099 0-57.306-19-67.701-47.278-1.253-3.412-4.766-5.433-8.354-4.796-3.579.637-6.186 3.749-6.186 7.384 0 17.617-14.333 31.95-31.95 31.95h-18.58c-4.143 0-7.5 3.358-7.5 7.5v19.331c-2.359-1.212-4.536-2.79-6.427-4.684-4.832-4.832-7.493-11.259-7.493-18.097 0-13.577 10.608-24.809 24.152-25.572 2.989-.168 5.592-2.099 6.621-4.911s.287-5.967-1.888-8.025c-2.445-2.314-4.463-5.181-5.824-8.269-1.421-3.249-2.142-6.709-2.142-10.284 0-9.837 5.479-18.642 14.3-22.98 3.717-1.828 5.249-6.323 3.421-10.04s-6.323-5.248-10.04-3.42c-13.99 6.88-22.681 20.844-22.681 36.44 0 5.657 1.144 11.139 3.408 16.315.441 1.001.919 1.979 1.434 2.933-15.14 5.949-25.762 20.707-25.762 37.811 0 7.325 1.933 14.35 5.544 20.501-3.092 1.619-5.949 3.698-8.438 6.186-6.548 6.552-10.155 15.265-10.155 24.535 0 19.123 15.562 34.68 34.69 34.68h7.279v12.71c0 46.297 36.691 84.173 82.527 86.126-.731 5.031-1.116 10.173-1.116 15.404v24.956c-4.206 1.721-8.067 4.275-11.375 7.583-6.548 6.549-10.154 15.264-10.154 24.538 0 19.122 15.563 34.678 34.693 34.678h7.278v12.704c0 47.555 38.68 86.244 86.224 86.244 47.556 0 86.244-38.689 86.244-86.244v-12.704h7.271c9.274 0 17.989-3.606 24.538-10.155 6.55-6.549 10.156-15.258 10.156-24.523 0-14.47-8.908-26.894-21.525-32.091v-12.038c13.895 9.084 30.14 13.972 47.06 13.972 15.604 0 30.889-4.21 44.2-12.174 3.555-2.127 4.712-6.732 2.585-10.287-2.126-3.555-6.732-4.711-10.286-2.585-10.984 6.572-23.605 10.046-36.499 10.046-17.533 0-34.189-6.357-47.233-17.944-1.302-23.259-10.088-44.552-23.987-61.502v-76.962c1.239.102 2.488.167 3.753.167h6.923c15.008 0 28.56-7.2 36.917-18.842 11.37 14.651 29.132 24.106 49.07 24.106 16.566 0 32.169-4.206 45.797-11.604v91.34c0 15.732-5.02 30.637-14.517 43.105-2.51 3.295-1.873 8.001 1.422 10.511 1.358 1.034 2.955 1.534 4.539 1.534 2.261 0 4.496-1.019 5.973-2.956 11.503-15.103 17.583-33.151 17.583-52.194v-1.083h7.275c9.275 0 17.989-3.607 24.538-10.156 6.55-6.549 10.156-15.258 10.156-24.523.001-19.128-15.562-34.692-34.693-34.692zm-200.958 20.764c3.728-3.72 8.68-5.769 13.942-5.769h7.28v32.257c-8.004-6.56-16.976-11.978-26.665-16.009.694-3.948 2.559-7.589 5.443-10.479zm-49.081-58.78c8.238 2.408 14.144 10.039 14.144 18.871 0 5.258-2.047 10.2-5.758 13.911-3.728 3.72-8.68 5.769-13.942 5.769h-7.28v-32.014c4.707-1.411 9.037-3.648 12.836-6.537zm-192.577 38.551c-10.857 0-19.69-8.829-19.69-19.68 0-5.264 2.047-10.21 5.764-13.927 2.332-2.332 5.227-4.033 8.355-4.953 3.86 2.925 8.223 5.151 12.851 6.546v32.013h-7.28zm22.28 27.71v-87.66h11.08c18.285 0 34.162-10.508 41.911-25.801 15.964 23.648 42.987 38.541 72.279 38.541 4.559 0 9.096-.35 13.476-1.04l3.714-.58v75.885c-34.337 10.308-61.443 37.484-71.653 71.863-39.083-.234-70.807-32.082-70.807-71.208zm79.574 178.286c-10.859 0-19.693-8.828-19.693-19.678 0-5.268 2.046-10.216 5.761-13.932 3.717-3.716 8.664-5.762 13.933-5.762h7.278v39.372zm164.746 27.703c0 39.284-31.96 71.244-71.244 71.244-39.272 0-71.224-31.96-71.224-71.244v-82.472l50.9-30.832-6.775 19.966c-.987 2.912-.099 6.131 2.244 8.123s5.664 2.352 8.378.91l55.272-29.371-12.759 27.316c-1.287 2.754-.784 6.012 1.273 8.25s5.26 3.013 8.113 1.963l35.82-13.19v89.337zm41.966-47.382c0 5.258-2.046 10.2-5.762 13.916-3.717 3.716-8.664 5.762-13.933 5.762h-7.271v-39.372h7.271c10.86 0 19.695 8.835 19.695 19.694zm-21.526-34.694h-5.44v-17.84c.014-.583-.041-1.175-.17-1.763-.12-.559-.304-1.094-.541-1.598-1.633-3.488-5.69-5.205-9.376-3.851l-28.819 10.61 14.541-31.131c1.365-2.923.709-6.391-1.63-8.612-2.34-2.222-5.837-2.698-8.685-1.185l-58.383 31.024 7.312-21.546c1.013-2.985.051-6.284-2.406-8.258-2.457-1.973-5.888-2.2-8.582-.567l-72.085 43.66c-2.259 1.354-3.644 3.795-3.644 6.432v4.626h-5.442v-22.383c0-50.547 41.123-91.67 91.67-91.67 50.553 0 91.681 41.123 91.681 91.67v22.382zm1.516-181.704h-6.923c-16.807 0-30.48-13.673-30.48-30.48v-.29c0-16.807 13.674-30.48 30.48-30.48h6.923c9.575 0 18.418 4.421 24.162 11.932-.291 2.518-.391 5.078-.274 7.666.023 7.992 1.58 15.625 4.365 22.642-4.625 11.47-15.676 19.01-28.253 19.01zm85.986 5.265c-25.97 0-47.098-21.128-47.098-47.098 0-.123-.003-.246-.009-.368-.435-8.836 2.685-17.23 8.785-23.637s14.331-9.936 23.178-9.936h96.448c-.141 44.71-36.559 81.039-81.304 81.039zm82.005 72.892c-3.716 3.716-8.663 5.762-13.932 5.762h-7.275v-39.373h7.275c10.859 0 19.694 8.835 19.694 19.694.001 5.259-2.045 10.201-5.762 13.917z"/><path d="m349.195 235.91c-2.929 2.929-2.929 7.678 0 10.607 9.242 9.242 21.531 14.333 34.603 14.333 13.07 0 25.359-5.09 34.602-14.333 2.929-2.929 2.929-7.678 0-10.607-2.93-2.929-7.678-2.928-10.607 0-6.409 6.409-14.931 9.939-23.994 9.939-9.064 0-17.586-3.53-23.995-9.939-2.931-2.929-7.679-2.929-10.609 0z"/><path d="m370.756 201.296v-15.903c0-4.142-3.357-7.5-7.5-7.5s-7.5 3.358-7.5 7.5v15.903c0 4.142 3.357 7.5 7.5 7.5s7.5-3.358 7.5-7.5z"/><path d="m411.839 201.296v-15.903c0-4.142-3.357-7.5-7.5-7.5s-7.5 3.358-7.5 7.5v15.903c0 4.142 3.357 7.5 7.5 7.5s7.5-3.358 7.5-7.5z"/><path d="m254.048 399.692c-6.409 6.409-14.931 9.939-23.995 9.939-9.063 0-17.585-3.53-23.994-9.939-2.93-2.928-7.678-2.929-10.607 0s-2.929 7.678 0 10.607c9.242 9.242 21.531 14.333 34.602 14.333s25.359-5.09 34.603-14.333c2.929-2.929 2.929-7.678 0-10.607-2.93-2.928-7.678-2.929-10.609 0z"/><path d="m209.512 372.578c4.143 0 7.5-3.358 7.5-7.5v-15.903c0-4.142-3.357-7.5-7.5-7.5s-7.5 3.358-7.5 7.5v15.903c0 4.143 3.357 7.5 7.5 7.5z"/><path d="m250.595 372.578c4.143 0 7.5-3.358 7.5-7.5v-15.903c0-4.142-3.357-7.5-7.5-7.5s-7.5 3.358-7.5 7.5v15.903c0 4.143 3.357 7.5 7.5 7.5z"/></g></g></svg>