<?xml version="1.0" encoding="iso-8859-1"?>
<!-- Generator: Adobe Illustrator 19.0.0, SVG Export Plug-In . SVG Version: 6.00 Build 0)  -->
<svg version="1.1" id="Layer_1" xmlns="http://www.w3.org/2000/svg" xmlns:xlink="http://www.w3.org/1999/xlink" x="0px" y="0px"
	 viewBox="0 0 512 512" style="enable-background:new 0 0 512 512;" xml:space="preserve">
<path style="fill:#458FDE;" d="M486.985,110.17H280.482c-8.818,0-15.967-7.149-15.967-15.967V23.95
	c0-8.818,7.149-15.967,15.967-15.967h206.503c8.818,0,15.967,7.149,15.967,15.967v70.254
	C502.952,103.022,495.803,110.17,486.985,110.17z"/>
<path style="fill:#4F5AA8;" d="M281.547,94.204V23.95c0-8.818,7.149-15.967,15.967-15.967h-17.031
	c-8.818,0-15.967,7.149-15.967,15.967v70.254c0,8.818,7.149,15.967,15.967,15.967h17.031
	C288.696,110.17,281.547,103.022,281.547,94.204z"/>
<rect x="290.062" y="39.917" style="fill:#E5E5E5;" width="187.343" height="38.32"/>
<g>
	<polygon style="fill:#FFFFFF;" points="397.217,39.917 358.897,78.237 372.379,78.237 410.7,39.917 	"/>
	<polygon style="fill:#FFFFFF;" points="428.441,39.917 390.121,78.237 417.086,78.237 455.406,39.917 	"/>
</g>
<path style="fill:#999999;" d="M486.985,504.017H25.015c-8.818,0-15.967-7.149-15.967-15.967V193.198
	c0-17.637,14.297-31.933,31.933-31.933h430.037c17.637,0,31.933,14.297,31.933,31.933V488.05
	C502.952,496.868,495.803,504.017,486.985,504.017z"/>
<path style="fill:#FFD652;" d="M486.985,504.017H25.015c-8.818,0-15.967-7.149-15.967-15.967v-88.349h493.904v88.349
	C502.952,496.868,495.803,504.017,486.985,504.017z"/>
<rect x="9.048" y="399.701" style="fill:#F7EDBC;" width="493.904" height="20.299"/>
<path style="fill:#FB9D46;" d="M9.048,476.695v11.354c0,8.818,7.149,15.967,15.967,15.967h461.971
	c8.818,0,15.967-7.149,15.967-15.967v-11.354H9.048z"/>
<circle style="fill:#FF7452;" cx="256" cy="450.794" r="23.418"/>
<rect x="375.218" y="340.091" style="fill:#458FDE;" width="34.062" height="34.062"/>
<rect x="443.343" y="340.091" style="fill:#5AC779;" width="34.062" height="34.062"/>
<g>
	<rect x="307.094" y="280.482" style="fill:#458FDE;" width="34.062" height="34.062"/>
	<rect x="375.218" y="280.482" style="fill:#458FDE;" width="34.062" height="34.062"/>
	<rect x="170.844" y="340.091" style="fill:#458FDE;" width="170.312" height="34.062"/>
	<rect x="170.844" y="280.482" style="fill:#458FDE;" width="34.062" height="34.062"/>
	<rect x="238.969" y="280.482" style="fill:#458FDE;" width="34.062" height="34.062"/>
	<rect x="34.595" y="340.091" style="fill:#458FDE;" width="34.062" height="34.062"/>
	<rect x="102.719" y="340.091" style="fill:#458FDE;" width="34.062" height="34.062"/>
	<rect x="34.595" y="280.482" style="fill:#458FDE;" width="34.062" height="34.062"/>
	<rect x="102.719" y="280.482" style="fill:#458FDE;" width="34.062" height="34.062"/>
</g>
<rect x="443.343" y="280.482" style="fill:#E24642;" width="34.062" height="34.062"/>
<path style="fill:#AFF078;" d="M461.439,250.678H323.06c-8.818,0-15.967-7.149-15.967-15.967v-27.676
	c0-8.818,7.149-15.967,15.967-15.967h138.378c8.818,0,15.967,7.149,15.967,15.967v27.676
	C477.405,243.529,470.257,250.678,461.439,250.678z"/>
<g>
	<polygon style="fill:#FFFFFF;" points="438.553,191.069 425.247,191.069 365.638,250.678 378.944,250.678 	"/>
	<path style="fill:#FFFFFF;" d="M461.439,191.069h-5.322l-59.609,59.609h30.869l49.065-49.065
		C474.218,195.468,468.35,191.069,461.439,191.069z"/>
</g>
<path style="fill:#AFF078;" d="M323.06,191.069c-8.818,0-15.967,7.149-15.967,15.967v15.257l31.223-31.223H323.06z"/>
<path style="fill:#E5E5E5;" d="M216.615,250.678H80.366V23.95c0-8.818,7.149-15.967,15.967-15.967h104.316
	c8.818,0,15.967,7.149,15.967,15.967V250.678z"/>
<path style="fill:#CCCCCC;" d="M101.398,7.983h-5.066c-8.818,0-15.967,7.149-15.967,15.967v226.728h74.7L101.398,7.983z"/>
<path d="M486.985,118.154c13.206,0,23.95-10.745,23.95-23.95V23.95c0-13.206-10.745-23.95-23.95-23.95H280.482
	c-13.206,0-23.95,10.745-23.95,23.95v70.254c0,13.206,10.745,23.95,23.95,23.95h95.268v35.127H224.599V23.95
	c0-13.206-10.745-23.95-23.95-23.95H96.333c-13.206,0-23.95,10.745-23.95,23.95v129.331H40.981
	c-22.011,0-39.917,17.906-39.917,39.917v234.179c0,4.41,3.573,7.983,7.983,7.983s7.983-3.573,7.983-7.983v-19.692h319.867
	c4.41,0,7.983-3.573,7.983-7.983c0-4.41-3.573-7.983-7.983-7.983H17.031v-198.52c0-13.206,10.745-23.95,23.95-23.95h31.401v73.447
	H49.497c-4.41,0-7.983,3.573-7.983,7.983s3.573,7.983,7.983,7.983h197.988c4.41,0,7.983-3.573,7.983-7.983s-3.573-7.983-7.983-7.983
	h-22.886v-73.447h246.42c13.206,0,23.95,10.745,23.95,23.95v198.52H379.476c-4.41,0-7.983,3.573-7.983,7.983
	c0,4.41,3.573,7.983,7.983,7.983h115.493v80.366c0,4.403-3.581,7.983-7.983,7.983H25.015c-4.403,0-7.983-3.581-7.983-7.983v-24.482
	c0-4.41-3.573-7.983-7.983-7.983s-7.983,3.573-7.983,7.983v24.482c0,13.206,10.745,23.95,23.95,23.95h461.971
	c13.206,0,23.95-10.745,23.95-23.95V193.198c0-22.011-17.906-39.917-39.917-39.917h-79.301v-35.127H486.985z M88.349,242.694V23.95
	c0-4.403,3.581-7.983,7.983-7.983h104.316c4.403,0,7.983,3.581,7.983,7.983v218.744H88.349z M272.499,94.204V23.95
	c0-4.403,3.581-7.983,7.983-7.983h206.503c4.403,0,7.983,3.581,7.983,7.983v70.254c0,4.403-3.581,7.983-7.983,7.983H280.482
	C276.08,102.187,272.499,98.606,272.499,94.204z"/>
<path d="M485.389,78.237v-38.32c0-4.41-3.573-7.983-7.983-7.983H290.062c-4.41,0-7.983,3.573-7.983,7.983v38.32
	c0,4.41,3.573,7.983,7.983,7.983h187.343C481.815,86.22,485.389,82.647,485.389,78.237z M469.422,70.254H298.046V47.9h171.376
	V70.254z"/>
<path d="M287.401,450.794c0-17.315-14.086-31.401-31.401-31.401s-31.401,14.086-31.401,31.401c0,17.315,14.086,31.401,31.401,31.401
	S287.401,468.11,287.401,450.794z M240.565,450.794c0-8.51,6.924-15.435,15.435-15.435c8.51,0,15.435,6.924,15.435,15.435
	c0,8.51-6.924,15.435-15.435,15.435C247.49,466.229,240.565,459.304,240.565,450.794z"/>
<path d="M409.281,332.108h-34.062c-4.41,0-7.983,3.573-7.983,7.983v34.062c0,4.41,3.573,7.983,7.983,7.983h34.062
	c4.41,0,7.983-3.573,7.983-7.983v-34.062C417.264,335.681,413.691,332.108,409.281,332.108z M401.297,366.17h-18.096v-18.096h18.096
	V366.17z"/>
<path d="M477.405,332.108h-34.062c-4.41,0-7.983,3.573-7.983,7.983v34.062c0,4.41,3.573,7.983,7.983,7.983h34.062
	c4.41,0,7.983-3.573,7.983-7.983v-34.062C485.389,335.681,481.815,332.108,477.405,332.108z M469.422,366.17h-18.096v-18.096h18.096
	V366.17z"/>
<path d="M299.11,314.545c0,4.41,3.573,7.983,7.983,7.983h34.062c4.41,0,7.983-3.573,7.983-7.983v-34.062
	c0-4.41-3.573-7.983-7.983-7.983h-34.062c-4.41,0-7.983,3.573-7.983,7.983V314.545z M315.077,288.466h18.096v18.096h-18.096V288.466
	z"/>
<path d="M417.264,280.482c0-4.41-3.573-7.983-7.983-7.983h-34.062c-4.41,0-7.983,3.573-7.983,7.983v34.062
	c0,4.41,3.573,7.983,7.983,7.983h34.062c4.41,0,7.983-3.573,7.983-7.983V280.482z M401.297,306.561h-18.096v-18.096h18.096V306.561z
	"/>
<path d="M162.861,374.154c0,4.41,3.573,7.983,7.983,7.983h170.312c4.41,0,7.983-3.573,7.983-7.983v-34.062
	c0-4.41-3.573-7.983-7.983-7.983H170.844c-4.41,0-7.983,3.573-7.983,7.983V374.154z M178.827,348.075h154.345v18.096H178.827
	V348.075z"/>
<path d="M170.844,322.528h34.062c4.41,0,7.983-3.573,7.983-7.983v-34.062c0-4.41-3.573-7.983-7.983-7.983h-34.062
	c-4.41,0-7.983,3.573-7.983,7.983v34.062C162.861,318.955,166.434,322.528,170.844,322.528z M178.827,288.466h18.096v18.096h-18.096
	V288.466z"/>
<path d="M273.031,322.528c4.41,0,7.983-3.573,7.983-7.983v-34.062c0-4.41-3.573-7.983-7.983-7.983h-34.062
	c-4.41,0-7.983,3.573-7.983,7.983v34.062c0,4.41,3.573,7.983,7.983,7.983H273.031z M246.952,288.466h18.096v18.096h-18.096V288.466z
	"/>
<path d="M68.657,332.108H34.595c-4.41,0-7.983,3.573-7.983,7.983v34.062c0,4.41,3.573,7.983,7.983,7.983h34.062
	c4.41,0,7.983-3.573,7.983-7.983v-34.062C76.64,335.681,73.067,332.108,68.657,332.108z M60.674,366.17H42.578v-18.096h18.096
	V366.17z"/>
<path d="M136.782,332.108h-34.062c-4.41,0-7.983,3.573-7.983,7.983v34.062c0,4.41,3.573,7.983,7.983,7.983h34.062
	c4.41,0,7.983-3.573,7.983-7.983v-34.062C144.765,335.681,141.192,332.108,136.782,332.108z M128.798,366.17h-18.096v-18.096h18.096
	V366.17z"/>
<path d="M76.64,280.482c0-4.41-3.573-7.983-7.983-7.983H34.595c-4.41,0-7.983,3.573-7.983,7.983v34.062
	c0,4.41,3.573,7.983,7.983,7.983h34.062c4.41,0,7.983-3.573,7.983-7.983V280.482z M60.674,306.561H42.578v-18.096h18.096V306.561z"
	/>
<path d="M144.765,280.482c0-4.41-3.573-7.983-7.983-7.983h-34.062c-4.41,0-7.983,3.573-7.983,7.983v34.062
	c0,4.41,3.573,7.983,7.983,7.983h34.062c4.41,0,7.983-3.573,7.983-7.983V280.482z M128.798,306.561h-18.096v-18.096h18.096V306.561z
	"/>
<path d="M485.389,280.482c0-4.41-3.573-7.983-7.983-7.983h-34.062c-4.41,0-7.983,3.573-7.983,7.983v34.062
	c0,4.41,3.573,7.983,7.983,7.983h34.062c4.41,0,7.983-3.573,7.983-7.983V280.482z M469.422,306.561h-18.096v-18.096h18.096V306.561z
	"/>
<path d="M485.389,207.035c0-13.206-10.745-23.95-23.95-23.95H323.06c-13.206,0-23.95,10.745-23.95,23.95v27.676
	c0,13.206,10.745,23.95,23.95,23.95h138.378c13.206,0,23.95-10.745,23.95-23.95V207.035z M469.422,234.711
	c0,4.403-3.581,7.983-7.983,7.983H323.06c-4.403,0-7.983-3.581-7.983-7.983v-27.676c0-4.403,3.581-7.983,7.983-7.983h138.378
	c4.403,0,7.983,3.581,7.983,7.983V234.711z"/>
<path d="M179.36,174.57h-57.48c-4.41,0-7.983,3.573-7.983,7.983s3.573,7.983,7.983,7.983h57.48c4.41,0,7.983-3.573,7.983-7.983
	S183.77,174.57,179.36,174.57z"/>
<path d="M179.36,208.632h-57.48c-4.41,0-7.983,3.573-7.983,7.983s3.573,7.983,7.983,7.983h57.48c4.41,0,7.983-3.573,7.983-7.983
	S183.77,208.632,179.36,208.632z"/>
<path d="M179.36,48.965h-21.821v-9.048c0-4.41-3.573-7.983-7.983-7.983s-7.983,3.573-7.983,7.983v9.048h-6.919
	c-10.271,0-18.628,8.357-18.628,18.628v17.031c0,10.271,8.357,18.628,18.628,18.628h6.919v22.353h-21.821
	c-4.41,0-7.983,3.573-7.983,7.983s3.573,7.983,7.983,7.983h21.821v9.048c0,4.41,3.573,7.983,7.983,7.983s7.983-3.573,7.983-7.983
	v-9.048h6.919c10.271,0,18.628-8.357,18.628-18.628v-17.031c0-10.271-8.357-18.628-18.628-18.628h-6.919V64.931h21.821
	c4.41,0,7.983-3.573,7.983-7.983S183.77,48.965,179.36,48.965z M164.457,103.252c1.468,0,2.661,1.193,2.661,2.661v17.031
	c0,1.468-1.193,2.661-2.661,2.661h-6.919v-22.353H164.457z M141.572,87.285h-6.919c-1.468,0-2.661-1.193-2.661-2.661V67.593
	c0-1.468,1.193-2.661,2.661-2.661h6.919V87.285z"/>
<g>
</g>
<g>
</g>
<g>
</g>
<g>
</g>
<g>
</g>
<g>
</g>
<g>
</g>
<g>
</g>
<g>
</g>
<g>
</g>
<g>
</g>
<g>
</g>
<g>
</g>
<g>
</g>
<g>
</g>
</svg>
