<?xml version="1.0" encoding="iso-8859-1"?>
<!-- Generator: Adobe Illustrator 19.0.0, SVG Export Plug-In . SVG Version: 6.00 Build 0)  -->
<svg version="1.1" id="Layer_1" xmlns="http://www.w3.org/2000/svg" xmlns:xlink="http://www.w3.org/1999/xlink" x="0px" y="0px"
	 viewBox="0 0 512.001 512.001" style="enable-background:new 0 0 512.001 512.001;" xml:space="preserve">
<path style="fill:#F16A5D;" d="M329.142,47.062h-76.278c-0.716,0-1.415,0.073-2.09,0.212v80.562h88.817V57.511
	C339.591,51.764,334.889,47.062,329.142,47.062z"/>
<path style="opacity:0.1;enable-background:new    ;" d="M252.864,47.062c-0.716,0-1.415,0.073-2.09,0.212v80.562h22.988V57.511
	c0-5.747,4.702-10.449,10.449-10.449H252.864z"/>
<path style="fill:#F16A5D;" d="M74.185,82.589c-5.747,0-10.449,4.702-10.449,10.449v34.799h89.862V83.075
	c-0.991-0.315-2.044-0.486-3.135-0.486H74.185z"/>
<path style="fill:#FFCC4D;" d="M250.774,127.836V37.748c0-5.747-4.702-10.449-10.449-10.449h-76.278
	c-5.747,0-10.449,4.702-10.449,10.449v90.089H250.774z"/>
<path style="opacity:0.1;enable-background:new    ;" d="M84.634,127.836V93.038c0-5.747,4.702-10.449,10.449-10.449H74.185
	c-5.747,0-10.449,4.702-10.449,10.449v34.799H84.634z"/>
<g>
	<path style="fill:#FFCC4D;" d="M112.761,365.683H61.625c-3.288,0-4.812,2.437-3.387,5.418l26.361,55.084
		c1.427,2.98,3.761,2.98,5.186,0l26.361-55.084C117.575,368.12,116.049,365.683,112.761,365.683z"/>
	<path style="fill:#FFCC4D;" d="M356.703,365.683h-51.137c-3.289,0-4.812,2.437-3.387,5.418l26.363,55.084
		c1.425,2.98,3.758,2.98,5.186,0l26.362-55.084C361.514,368.12,359.992,365.683,356.703,365.683z"/>
	<path style="fill:#FFCC4D;" d="M493.715,86.768h-44.364c-5.747,0-10.449,4.702-10.449,10.449v7.502
		c0,5.747,4.702,10.449,10.449,10.449h44.364c5.747,0,10.449-4.702,10.449-10.449v-7.502
		C504.164,91.47,499.462,86.768,493.715,86.768z"/>
</g>
<path style="opacity:0.1;enable-background:new    ;" d="M184.945,27.298h-20.898c-5.747,0-10.449,4.702-10.449,10.449v100.807
	h20.898V37.748C174.496,32.001,179.198,27.298,184.945,27.298z"/>
<path style="fill:#666666;" d="M108.941,386.161l-19.154,40.024c-1.425,2.98-3.759,2.98-5.186,0l-19.154-40.024
	c-17.524,8.238-29.671,26.111-29.671,46.846c0,28.551,23.02,51.695,51.419,51.695c28.396,0,51.419-23.143,51.419-51.695
	C138.613,412.273,126.465,394.399,108.941,386.161z"/>
<path style="fill:#CCCCCC;" d="M98.565,407.84l-8.778,18.345c-1.425,2.98-3.759,2.98-5.186,0l-8.778-18.344
	c-9.506,4.358-16.131,13.996-16.131,25.167c0,15.247,12.336,27.649,27.503,27.649c15.166,0,27.503-12.402,27.503-27.649
	C114.697,421.836,108.071,412.199,98.565,407.84z"/>
<path style="fill:#666666;" d="M352.883,386.161l-19.154,40.024c-1.427,2.98-3.761,2.98-5.186,0l-19.155-40.024
	c-17.525,8.238-29.672,26.111-29.672,46.846c0,28.551,23.021,51.695,51.42,51.695c28.398,0,51.419-23.143,51.419-51.695
	C382.553,412.273,370.407,394.399,352.883,386.161z"/>
<path style="fill:#CCCCCC;" d="M342.507,407.841l-8.778,18.344c-1.427,2.98-3.761,2.98-5.186,0l-8.779-18.345
	c-9.506,4.359-16.132,13.998-16.132,25.168c0,15.247,12.338,27.649,27.503,27.649c15.166,0,27.503-12.402,27.503-27.649
	C358.638,421.837,352.013,412.2,342.507,407.841z"/>
<path style="opacity:0.1;enable-background:new    ;" d="M80.046,371.101c-1.425-2.981,0.098-5.418,3.387-5.418H61.625
	c-3.288,0-4.812,2.437-3.387,5.418l26.361,55.084c1.427,2.98,3.761,2.98,5.186,0l8.311-17.365L80.046,371.101z"/>
<path id="SVGCleanerId_0" style="fill:#FFCC4D;" d="M356.703,365.683c3.288,0,4.811,2.437,3.387,5.418l-26.362,55.084
	c-1.427,2.98-3.761,2.98-5.186,0l-26.363-55.084c-1.425-2.981,0.098-5.418,3.387-5.418H356.703z"/>
<g>
	<path id="SVGCleanerId_0_1_" style="fill:#FFCC4D;" d="M356.703,365.683c3.288,0,4.811,2.437,3.387,5.418l-26.362,55.084
		c-1.427,2.98-3.761,2.98-5.186,0l-26.363-55.084c-1.425-2.981,0.098-5.418,3.387-5.418H356.703z"/>
</g>
<path style="opacity:0.1;enable-background:new    ;" d="M323.986,371.101c-1.425-2.981,0.098-5.418,3.387-5.418h-21.807
	c-3.289,0-4.812,2.437-3.387,5.418l26.363,55.084c1.425,2.98,3.759,2.98,5.186,0l8.31-17.365L323.986,371.101z"/>
<path style="fill:#A5998E;" d="M338.676,307.976c6.577,0,13.62-5.145,15.653-11.434l50.827-157.271
	c2.032-6.288-1.685-11.434-8.263-11.434H16.651c-6.577,0-10.295,5.147-8.263,11.434l50.829,157.271
	c2.032,6.29,9.076,11.434,15.653,11.434H338.676z"/>
<path style="opacity:0.1;enable-background:new    ;" d="M92.132,296.542L41.303,139.271c-2.031-6.288,1.686-11.434,8.263-11.434
	H16.651c-6.577,0-10.295,5.147-8.263,11.434l50.829,157.271c2.032,6.29,9.076,11.434,15.653,11.434h32.915
	C101.208,307.976,94.164,302.831,92.132,296.542z"/>
<path d="M216.292,357.846H40.557c-4.329,0-7.837,3.508-7.837,7.837c0,4.328,3.508,7.837,7.837,7.837h10.215
	c0.032,0.084,1.828,3.85,4.471,9.391c-16.408,10.596-27.305,29.087-27.305,50.097c0,32.826,26.581,59.531,59.256,59.531
	s59.256-26.706,59.256-59.531c0-21.011-10.899-39.503-27.308-50.098c2.644-5.54,4.439-9.306,4.471-9.39h92.678
	c4.329,0,7.837-3.509,7.837-7.837C224.129,361.354,220.621,357.846,216.292,357.846z M106.302,373.52l-19.109,39.93l-19.109-39.93
	H106.302z M106.86,433.007c0,10.924-8.822,19.812-19.666,19.812s-19.666-8.888-19.666-19.812c0-5.179,1.993-9.888,5.235-13.419
	c2.832,5.926,4.77,9.982,4.77,9.982c2.005,4.187,5.617,6.685,9.661,6.685c4.046,0,7.657-2.502,9.661-6.688
	c0,0,1.937-4.055,4.768-9.98C104.867,423.118,106.86,427.828,106.86,433.007z M130.776,433.007
	c0,24.182-19.551,43.858-43.582,43.858s-43.582-19.675-43.582-43.858c0-14.773,7.3-27.854,18.456-35.804
	c1.21,2.533,2.442,5.113,3.657,7.656c-8.422,6.491-13.871,16.686-13.871,28.148c0,19.568,15.853,35.486,35.34,35.486
	s35.34-15.918,35.34-35.486c0-11.463-5.45-21.658-13.873-28.148c1.215-2.545,2.448-5.124,3.657-7.657
	C123.475,405.152,130.776,418.235,130.776,433.007z"/>
<path d="M493.715,78.931h-71.699c-3.401,0-6.414,2.194-7.459,5.43l-11.499,35.637h-55.63v-17.6c0-4.329-3.508-7.837-7.837-7.837
	c-4.329,0-7.837,3.508-7.837,7.837v17.601h-73.143V54.899h70.531c1.416,0,2.612,1.196,2.612,2.612v16.676
	c0,4.329,3.508,7.837,7.837,7.837c4.329,0,7.837-3.508,7.837-7.837V57.511c0-10.082-8.204-18.286-18.286-18.286h-70.531v-1.478
	c0-10.082-8.204-18.286-18.286-18.286h-76.278c-10.082,0-18.286,8.204-18.286,18.286v37.004H74.185
	c-10.082,0-18.286,8.204-18.286,18.286v26.962H16.651c-5.658,0-10.646,2.393-13.682,6.564c-3.047,4.187-3.79,9.697-2.039,15.118
	L51.76,298.952c3.056,9.455,13.208,16.862,23.11,16.862h326.815c11.505,0,20.865,9.427,20.865,21.016
	c0,11.589-9.359,21.016-20.865,21.016H245.549c-4.329,0-7.837,3.508-7.837,7.837c0,4.328,3.508,7.837,7.837,7.837h49.165
	c0.032,0.084,1.828,3.85,4.471,9.391c-16.409,10.596-27.308,29.087-27.308,50.097c0,32.826,26.582,59.531,59.257,59.531
	s59.256-26.706,59.256-59.531c0-21.01-10.898-39.501-27.305-50.097c2.644-5.541,4.439-9.308,4.471-9.391h34.129
	c20.147,0,36.538-16.459,36.538-36.69c0-20.23-16.391-36.69-36.538-36.69h-40.344c0.155-0.394,0.316-0.786,0.445-1.188
	l65.936-204.346h3.552c-0.122,0.855-0.208,1.723-0.208,2.612v7.502c0,10.082,8.204,18.286,18.286,18.286h44.364
	c10.082,0,18.286-8.204,18.286-18.286v-7.502C512.001,87.135,503.797,78.931,493.715,78.931z M350.245,373.52l-19.109,39.93
	l-19.11-39.93H350.245z M316.704,419.589c2.832,5.925,4.769,9.98,4.769,9.98c2.004,4.188,5.615,6.688,9.661,6.688
	c4.044,0,7.656-2.499,9.663-6.688c0,0,1.937-4.054,4.768-9.979c3.242,3.531,5.235,8.24,5.235,13.419
	c0,10.924-8.822,19.812-19.666,19.812c-10.844,0-19.666-8.888-19.666-19.812C311.468,427.828,313.461,423.118,316.704,419.589z
	 M374.717,433.007c0,24.182-19.551,43.858-43.582,43.858c-24.032,0-43.583-19.675-43.583-43.858
	c0-14.774,7.301-27.855,18.458-35.805c1.209,2.533,2.442,5.113,3.657,7.657c-8.424,6.49-13.872,16.685-13.872,28.148
	c0,19.568,15.853,35.486,35.34,35.486s35.34-15.918,35.34-35.486c0-11.462-5.449-21.657-13.871-28.148
	c1.215-2.544,2.447-5.123,3.657-7.656C367.417,405.153,374.717,418.236,374.717,433.007z M161.435,37.748
	c0-1.416,1.196-2.612,2.612-2.612h76.278c1.416,0,2.612,1.196,2.612,2.612v82.252h-81.503V37.748z M71.573,93.038
	c0-1.416,1.196-2.612,2.612-2.612h71.576v29.574H71.573V93.038z M15.846,136.861c-0.177-0.545-0.185-0.885-0.171-1.047
	c0.144-0.056,0.449-0.142,0.978-0.142h94.991v41.839h-82.66L15.846,136.861z M111.644,300.139H74.87
	c-3.157,0-7.216-2.976-8.196-6.008l-13.975-43.239h58.943v49.247H111.644z M198.937,300.139h-71.62v-49.247h71.62V300.139z
	 M198.937,235.218h-71.62v-13.701c0-4.329-3.508-7.837-7.837-7.837s-7.837,3.508-7.837,7.837v13.701h-64.01L34.05,193.185h77.652
	c0.458,3.892,3.763,6.912,7.777,6.912c4.016,0,7.32-3.021,7.777-6.912h71.68v42.033H198.937z M198.937,177.512h-71.62v-41.839h71.62
	V177.512z M286.229,235.218h-13.513c-4.329,0-7.837,3.508-7.837,7.837s3.508,7.837,7.837,7.837h13.513v49.247h-71.618v-49.247
	h29.893c4.329,0,7.837-3.508,7.837-7.837s-3.508-7.837-7.837-7.837h-29.893v-42.033h71.618V235.218z M286.229,177.512h-71.618
	v-41.839h71.618V177.512z M347.058,293.553l-0.187,0.578c-0.98,3.032-5.04,6.008-8.196,6.008h-36.773v-49.247h58.922
	L347.058,293.553z M365.881,235.218h-63.979v-42.033h77.541L365.881,235.218z M397.865,136.097l-13.363,41.415h-82.599v-41.839
	h94.99c0.529,0,0.834,0.086,0.978,0.142C397.876,135.878,397.874,135.978,397.865,136.097z M496.327,104.72
	c0,1.416-1.196,2.612-2.612,2.612h-44.364c-1.416,0-2.612-1.196-2.612-2.612v-7.502c0-1.416,1.196-2.612,2.612-2.612h44.364
	c1.416,0,2.612,1.196,2.612,2.612V104.72z"/>
<g>
</g>
<g>
</g>
<g>
</g>
<g>
</g>
<g>
</g>
<g>
</g>
<g>
</g>
<g>
</g>
<g>
</g>
<g>
</g>
<g>
</g>
<g>
</g>
<g>
</g>
<g>
</g>
<g>
</g>
</svg>
