<svg id="Layer_5" enable-background="new 0 0 64 64" height="512" viewBox="0 0 64 64" width="512" xmlns="http://www.w3.org/2000/svg"><g><g><g><path d="m6 2h46c-2.21 0-4 1.79-4 4h-18-12-11c-.55 0-1 .45-1 1v3c-2.21 0-4-1.79-4-4 0-1.1.45-2.1 1.17-2.83.73-.72 1.73-1.17 2.83-1.17z" fill="#e6e9ed"/></g><g><path d="m18 6-4 4h-4-4v-3c0-.55.45-1 1-1z" fill="#ffeaa7"/></g><g><path d="m52 10h-26l4-4h18c0 1.1.45 2.1 1.17 2.83.73.72 1.73 1.17 2.83 1.17z" fill="#ffeaa7"/></g><g><path d="m10 10v52h-4c-2.21 0-4-1.79-4-4v-52c0 2.21 1.79 4 4 4z" fill="#dfb28b"/></g><g><path d="m10 10v52h38c2.21 0 4-1.79 4-4v-48z" fill="#ecc19c"/></g><g><path d="m20 20-6 2v-12l4-4h12l-4 4v12z" fill="#69d6f4"/></g><g><path d="m26 55v2c0 .55-.45 1-1 1h-10c-.55 0-1-.45-1-1v-2c0-.55.45-1 1-1h10c.55 0 1 .45 1 1z" fill="#ff826e"/></g><g><path d="m52 34h6v6h-6z" fill="#fcd770"/></g><g><path d="m52 24h8v6h-8z" fill="#fcd770"/></g><g><path d="m52 14h10v6h-10z" fill="#fcd770"/></g><g><path d="m48 29c0 1.55-.39 3-1.08 4.27-.73-.78-1.77-1.27-2.92-1.27-.42 0-.81.07-1.18.2.72-.87 1.18-1.97 1.18-3.2 0-2.76-2.24-5-5-5-2.46 0-4.49 1.78-4.91 4.12-.35-.08-.72-.12-1.09-.12-1.13 0-2.17.37-3 1 0-4.97 4.03-9 9-9s9 4.03 9 9z" fill="#ff826e"/></g><g><path d="m44 29c0 1.23-.46 2.33-1.18 3.2-.08.01-.16.04-.23.07-.65-1.34-2-2.27-3.59-2.27-.63 0-1.21.16-1.74.41-.7-1.14-1.83-1.99-3.17-2.29.42-2.34 2.45-4.12 4.91-4.12 2.76 0 5 2.24 5 5z" fill="#5cd6b3"/></g><g><path d="m42.82 32.2c.37-.13.76-.2 1.18-.2 1.15 0 2.19.49 2.92 1.27 0 0 .01 0 0 .01.67.72 1.08 1.67 1.08 2.72 0 2.21-1.79 4-4 4h-16c-2.21 0-4-1.79-4-4s1.79-4 4-4c.03 0 .07.01.1.01.25-1.22.94-2.28 1.9-3v-.01c.83-.63 1.87-1 3-1 .37 0 .74.04 1.09.12 1.34.3 2.47 1.15 3.17 2.29.53-.25 1.11-.41 1.74-.41 1.59 0 2.94.93 3.59 2.27.07-.03.15-.06.23-.07z" fill="#e6e9ed"/></g></g><g><path d="m63 21v-8h-10v-4h-1c-1.654 0-3-1.346-3-3s1.346-3 3-3h1v-2h-47c-2.757 0-5 2.243-5 5v52c0 2.757 2.243 5 5 5h42c2.757 0 5-2.243 5-5v-17h6v-8h-6v-2h8v-8h-8v-2zm-2-6v4h-8v-4zm-42-2v6.279l-4 1.334v-10.199l3.414-3.414h9.172l-2.586 2.586v11.027l-4-1.334v-6.279zm-5.414-4h-6.586v-2h8.586zm16.828-2h16.687c.152.743.482 1.416.924 2h-19.611zm-24.414-4h42.026c-.442.584-.773 1.257-.924 2h-40.102c-1.103 0-2 .897-2 2v1.816c-1.161-.414-2-1.514-2-2.816 0-1.654 1.346-3 3-3zm-3 55v-48.026c.838.635 1.87 1.026 3 1.026h3v50h-3c-1.654 0-3-1.346-3-3zm48 0c0 1.654-1.346 3-3 3h-37v-50h2v12.387l7-2.333 7 2.333v-12.387h24zm6-23v4h-4v-4zm2-10v4h-6v-4z"/><path d="m25 53h-10c-1.103 0-2 .897-2 2v2c0 1.103.897 2 2 2h10c1.103 0 2-.897 2-2v-2c0-1.103-.897-2-2-2zm0 4h-10v-2h10z"/><path d="m27.328 31.045c-2.441.329-4.328 2.426-4.328 4.955 0 2.757 2.243 5 5 5h16c2.757 0 5-2.243 5-5 0-1.067-.342-2.052-.914-2.865.588-1.294.914-2.705.914-4.135 0-5.514-4.486-10-10-10-5.351 0-9.72 4.227-9.975 9.531-.757.673-1.356 1.526-1.697 2.514zm11.672-10.045c4.411 0 8 3.589 8 8 0 .925-.171 1.841-.481 2.706-.57-.336-1.209-.556-1.894-.643.246-.655.375-1.348.375-2.063 0-3.309-2.691-6-6-6-2.583 0-4.818 1.644-5.645 4.02-.118-.007-.235-.02-.355-.02-.627 0-1.235.102-1.81.285.788-3.589 3.988-6.285 7.81-6.285zm3.642 9.59c-.927-1.002-2.228-1.59-3.642-1.59-.464 0-.924.067-1.375.201-.624-.767-1.417-1.349-2.303-1.724.604-1.472 2.033-2.477 3.678-2.477 2.206 0 4 1.794 4 4 0 .555-.131 1.089-.358 1.59zm-13.562 1.618c.374-1.859 2.023-3.208 3.92-3.208 1.396 0 2.668.723 3.405 1.934l.474.778.819-.399c1.547-.753 3.292-.06 3.993 1.391l.398.824.856-.323c2.082-.791 4.055.798 4.055 2.795 0 1.654-1.346 3-3 3h-16c-1.654 0-3-1.346-3-3s1.346-3 2.905-3.006l1.008.04z"/><path d="m35 57h2v2h-2z"/><path d="m47 57h2v2h-2z"/><path d="m43 57h2v2h-2z"/><path d="m39 57h2v2h-2z"/><path d="m35 53h14v2h-14z"/><path d="m35 49h14v2h-14z"/></g></g></svg>