<?xml version="1.0" encoding="iso-8859-1"?>
<!-- Generator: Adobe Illustrator 19.0.0, SVG Export Plug-In . SVG Version: 6.00 Build 0)  -->
<svg version="1.1" id="Capa_1" xmlns="http://www.w3.org/2000/svg" xmlns:xlink="http://www.w3.org/1999/xlink" x="0px" y="0px"
	 viewBox="0 0 512 512" style="enable-background:new 0 0 512 512;" xml:space="preserve">
<rect x="95.952" y="37.112" style="fill:#A5DC69;" width="319.841" height="159.921"/>
<rect x="9.995" y="346.958" style="fill:#F5C86E;" width="127.937" height="127.937"/>
<rect x="192.035" y="346.958" style="fill:#7D9BFF;" width="127.937" height="127.937"/>
<rect x="374.064" y="346.958" style="fill:#FF8C8C;" width="127.937" height="127.937"/>
<path d="M342.83,249.003c-2.629,0-5.207,1.068-7.066,2.929c-1.859,1.86-2.929,4.438-2.929,7.066s1.068,5.207,2.929,7.065
	c1.859,1.859,4.438,2.93,7.066,2.93c2.629,0,5.197-1.069,7.065-2.93c1.859-1.858,2.93-4.437,2.93-7.065s-1.069-5.207-2.93-7.066
	C348.037,250.072,345.459,249.003,342.83,249.003z"/>
<path d="M319.968,336.96h-54.1v-67.966h39.98c5.519,0,9.995-4.476,9.995-9.995s-4.476-9.995-9.995-9.995h-39.98v-41.979h149.926
	c5.519,0,9.995-4.476,9.995-9.995V37.109c0-5.519-4.476-9.995-9.995-9.995H95.952c-5.519,0-9.995,4.476-9.995,9.995v159.921
	c0,5.519,4.476,9.995,9.995,9.995h149.926v41.979H75.131c-5.519,0-9.995,4.476-9.995,9.995v77.961H9.995
	c-5.519,0-9.995,4.476-9.995,9.995v127.937c0,5.519,4.476,9.995,9.995,9.995h127.937c5.519,0,9.995-4.476,9.995-9.995V346.955
	c0-5.519-4.476-9.995-9.995-9.995H85.126v-67.966h160.752v67.966h-53.846c-5.519,0-9.995,4.476-9.995,9.995v127.937
	c0,5.519,4.476,9.995,9.995,9.995h127.937c5.519,0,9.995-4.476,9.995-9.995V346.955C329.963,341.435,325.487,336.96,319.968,336.96z
	 M105.947,87.084h67.71c5.519,0,9.995-4.476,9.995-9.995s-4.476-9.995-9.995-9.995h-67.71v-19.99h299.851v139.931H105.947V87.084z
	 M127.937,464.896H19.99V356.95h107.946V464.896z M309.973,464.896H202.027V356.95h107.946V464.896z"/>
<path d="M502.005,336.96H446.61v-77.961c0-5.519-4.476-9.995-9.995-9.995h-54.805c-5.519,0-9.995,4.476-9.995,9.995
	s4.476,9.995,9.995,9.995h44.81v67.966h-52.552c-5.519,0-9.995,4.476-9.995,9.995v127.937c0,5.519,4.476,9.995,9.995,9.995h127.937
	c5.519,0,9.995-4.476,9.995-9.995V346.955C512,341.435,507.524,336.96,502.005,336.96z M492.01,464.896H384.063V356.95H492.01
	V464.896z"/>
<path d="M215.703,67.094c-2.639,0-5.207,1.068-7.076,2.929c-1.858,1.859-2.919,4.438-2.919,7.066s1.06,5.207,2.919,7.065
	c1.869,1.859,4.448,2.93,7.076,2.93c2.629,0,5.197-1.069,7.066-2.93c1.859-1.858,2.929-4.437,2.929-7.065s-1.068-5.207-2.929-7.066
	C220.909,68.163,218.331,67.094,215.703,67.094z"/>
<g>
</g>
<g>
</g>
<g>
</g>
<g>
</g>
<g>
</g>
<g>
</g>
<g>
</g>
<g>
</g>
<g>
</g>
<g>
</g>
<g>
</g>
<g>
</g>
<g>
</g>
<g>
</g>
<g>
</g>
</svg>
