<svg id="Capa_1" enable-background="new 0 0 512 512" height="512" viewBox="0 0 512 512" width="512" xmlns="http://www.w3.org/2000/svg"><g><g><g><path d="m504.5 272.475v-32.951c0-5.035-3.707-9.301-8.693-10.003l-53.647-7.556c-3.332-.469-6.016-2.957-6.75-6.24-1.102-4.935-2.402-9.794-3.892-14.57-1.001-3.209.081-6.699 2.729-8.769l42.671-33.359c3.966-3.101 5.044-8.649 2.527-13.009l-16.475-28.536c-2.517-4.36-7.861-6.201-12.53-4.316l-50.264 20.29c-3.117 1.258-6.681.45-8.959-2.022-3.404-3.694-6.958-7.247-10.652-10.652-2.472-2.278-3.28-5.842-2.022-8.959l20.29-50.264c1.885-4.669.044-10.012-4.316-12.53l-28.536-16.476c-4.36-2.517-9.908-1.44-13.009 2.527l-33.359 42.671c-2.07 2.648-5.56 3.73-8.769 2.729-4.776-1.49-9.636-2.79-14.57-3.892-3.284-.733-5.771-3.418-6.24-6.75l-7.556-53.647c-.702-4.985-4.968-8.693-10.003-8.693h-32.951c-5.035 0-9.301 3.707-10.003 8.693l-7.556 53.647c-.469 3.332-2.957 6.016-6.24 6.75-4.935 1.102-9.794 2.402-14.57 3.892-3.209 1.001-6.699-.081-8.769-2.729l-33.359-42.671c-3.101-3.966-8.649-5.044-13.009-2.527l-28.536 16.477c-4.36 2.517-6.201 7.861-4.316 12.53l20.29 50.263c1.258 3.117.45 6.681-2.022 8.959-3.694 3.404-7.247 6.958-10.652 10.652-2.278 2.472-5.842 3.28-8.959 2.022l-50.264-20.29c-4.669-1.885-10.012-.044-12.53 4.316l-16.476 28.536c-2.517 4.36-1.44 9.908 2.527 13.009l42.671 33.359c2.648 2.07 3.73 5.56 2.729 8.769-1.49 4.776-2.79 9.636-3.892 14.57-.733 3.284-3.418 5.771-6.75 6.24l-53.647 7.556c-4.985.702-8.693 4.968-8.693 10.003v32.951c0 5.035 3.707 9.301 8.693 10.003l53.647 7.556c3.332.469 6.016 2.957 6.75 6.24 1.102 4.935 2.402 9.794 3.892 14.57 1.001 3.209-.081 6.699-2.729 8.769l-42.671 33.359c-3.966 3.101-5.044 8.649-2.527 13.009l16.476 28.536c2.517 4.36 7.861 6.201 12.53 4.316l50.264-20.29c3.117-1.258 6.681-.45 8.959 2.022 3.404 3.694 6.958 7.247 10.652 10.652 2.472 2.278 3.28 5.842 2.022 8.959l-20.29 50.263c-1.885 4.669-.044 10.012 4.316 12.53l28.536 16.476c4.36 2.517 9.908 1.44 13.009-2.527l33.359-42.671c2.07-2.648 5.56-3.73 8.769-2.729 4.776 1.49 9.636 2.79 14.57 3.892 3.284.733 5.771 3.418 6.24 6.75l7.556 53.647c.702 4.985 4.968 8.693 10.003 8.693h32.951c5.035 0 9.301-3.707 10.003-8.693l7.556-53.647c.469-3.332 2.957-6.016 6.24-6.75 4.935-1.102 9.794-2.402 14.57-3.892 3.209-1.001 6.699.081 8.769 2.729l33.359 42.671c3.101 3.966 8.649 5.044 13.009 2.527l28.536-16.475c4.36-2.517 6.201-7.861 4.316-12.53l-20.29-50.264c-1.258-3.117-.45-6.681 2.022-8.959 3.694-3.404 7.247-6.958 10.652-10.652 2.278-2.472 5.842-3.28 8.959-2.022l50.264 20.29c4.669 1.885 10.012.044 12.53-4.316l16.475-28.536c2.517-4.36 1.44-9.908-2.527-13.009l-42.671-33.359c-2.648-2.07-3.73-5.56-2.729-8.769 1.49-4.776 2.79-9.636 3.892-14.57.733-3.284 3.418-5.771 6.75-6.24l53.647-7.556c4.986-.702 8.693-4.968 8.693-10.003zm-248.5 114.846c-72.527 0-131.321-58.794-131.321-131.321s58.794-131.321 131.321-131.321 131.321 58.794 131.321 131.321-58.794 131.321-131.321 131.321z" fill="#9facba"/></g><g><g><path d="m392.473 77.32 6.362-15.76c1.885-4.669.044-10.012-4.316-12.529l-28.536-16.476c-2.008-1.159-4.267-1.547-6.424-1.251 12.743 13.891 23.824 29.332 32.914 46.016z" fill="#8d9ca8"/></g><g><path d="m495.807 229.522-53.647-7.556c-3.332-.469-6.016-2.957-6.75-6.24-1.102-4.935-2.402-9.794-3.892-14.57-1.001-3.209.081-6.698 2.729-8.769l42.671-33.359c3.966-3.101 5.044-8.649 2.527-13.009l-16.475-28.536c-2.517-4.36-7.861-6.201-12.53-4.316l-37.614 15.184c5.098 19.133 7.83 39.231 7.83 59.97 0 128.316-104.021 232.337-232.337 232.337-20.739 0-40.837-2.732-59.97-7.83l-15.184 37.614c-1.885 4.669-.044 10.012 4.316 12.53l28.536 16.475c4.36 2.517 9.908 1.44 13.009-2.527l33.359-42.671c2.07-2.648 5.56-3.73 8.769-2.729 4.776 1.49 9.636 2.79 14.57 3.892 3.284.733 5.771 3.418 6.24 6.75l7.556 53.647c.702 4.985 4.968 8.693 10.003 8.693h32.951c5.035 0 9.301-3.707 10.003-8.693l7.556-53.647c.469-3.332 2.957-6.016 6.24-6.75 4.935-1.102 9.794-2.402 14.57-3.892 3.209-1.001 6.698.081 8.769 2.729l33.359 42.671c3.101 3.966 8.649 5.044 13.009 2.527l28.536-16.475c4.36-2.517 6.201-7.861 4.316-12.529l-20.29-50.264c-1.258-3.117-.45-6.681 2.022-8.959 3.694-3.404 7.247-6.958 10.652-10.652 2.278-2.472 5.842-3.28 8.959-2.022l50.264 20.29c4.669 1.885 10.012.044 12.53-4.316l16.475-28.536c2.517-4.36 1.44-9.908-2.527-13.009l-42.671-33.359c-2.648-2.07-3.73-5.56-2.729-8.769 1.49-4.776 2.79-9.636 3.892-14.57.733-3.284 3.418-5.771 6.75-6.24l53.647-7.556c4.985-.702 8.693-4.968 8.693-10.003v-32.951c.001-5.037-3.706-9.303-8.692-10.005z" fill="#8d9ca8"/></g><g><path d="m31.304 359.558c-.297 2.157.091 4.415 1.251 6.424l16.476 28.536c2.517 4.36 7.861 6.201 12.53 4.316l15.759-6.362c-16.684-9.09-32.125-20.17-46.016-32.914z" fill="#8d9ca8"/></g></g></g><g><g><g><path d="m346.908 412.503c-.448-38.357-24.652-70.998-58.583-83.91v-201.894c0-3.483-1.794-6.72-4.748-8.566l-22.224-13.89c-3.276-2.047-7.432-2.047-10.708 0l-22.224 13.89c-2.954 1.846-4.748 5.083-4.748 8.566v48.488l14.142 16.163-14.142 16.163v121.08c-34.25 13.034-58.589 46.168-58.589 84.993 0 50.643 41.407 91.614 92.213 90.906 49.882-.697 90.193-42.107 89.611-91.989zm-107.071 43.509c0-8.912 7.25-16.163 16.163-16.163 8.912 0 16.163 7.25 16.163 16.163s-7.25 16.163-16.163 16.163c-8.912 0-16.163-7.251-16.163-16.163z" fill="#f7e365"/></g><g><path d="m170.027 443.214c16.233 11.251 35.936 17.849 57.183 17.849 4.474 0 8.878-.296 13.197-.863 1.852 6.885 8.131 11.975 15.593 11.975 8.912 0 16.163-7.25 16.163-16.163 0-1.792-.305-3.512-.846-5.124 33.4-16.338 56.405-50.649 56.405-90.336 0-.96-.017-1.916-.043-2.869 12.046 15.42 19.236 34.818 19.236 55.903 0 50.211-40.704 90.915-90.915 90.915-39.836-.001-73.684-25.624-85.973-61.287z" fill="#f3d332"/></g><g><path d="m204.482 391.362c0-8.926 7.236-16.163 16.163-16.163h70.711c8.926 0 16.163 7.236 16.163 16.163 0 8.926-7.236 16.163-16.163 16.163h-70.711c-8.927-.001-16.163-7.237-16.163-16.163z" fill="#e9a761"/></g></g><g><g><path d="m401.463 241.858h-290.926c-27.895 0-50.508 22.613-50.508 50.508 0 27.895 22.613 50.508 50.508 50.508h290.927c27.895 0 50.508-22.613 50.508-50.508 0-27.895-22.614-50.508-50.509-50.508z" fill="#d3effd"/></g></g></g><g><path d="m496.849 222.097-53.629-7.554c-.241-.035-.431-.208-.488-.468-1.171-5.192-2.536-10.292-4.055-15.146-.074-.237 0-.485.186-.63l42.686-33.37c6.857-5.371 8.748-15.112 4.396-22.666l-16.475-28.523c-4.351-7.547-13.733-10.791-21.842-7.531l-50.241 20.288c-.229.089-.488.032-.648-.141-3.529-3.833-7.262-7.565-11.091-11.091-.178-.164-.235-.426-.15-.638l20.299-50.269c3.252-8.093.012-17.478-7.531-21.827l-28.533-16.479c-7.546-4.351-17.289-2.459-22.665 4.404l-33.362 42.677c-.147.188-.397.261-.618.193-4.828-1.515-9.93-2.88-15.188-4.065-.233-.052-.406-.241-.439-.472l-7.555-53.632c-1.209-8.639-8.702-15.157-17.43-15.157h-32.951c-8.729 0-16.221 6.518-17.428 15.151l-7.554 53.628c-.035.242-.208.432-.468.489-5.194 1.171-10.293 2.536-15.146 4.055-.236.076-.484 0-.63-.186l-33.37-42.685c-5.371-6.857-15.112-8.749-22.667-4.396l-28.522 16.473c-7.548 4.352-10.789 13.736-7.532 21.843l20.289 50.241c.091.227.033.488-.14.648-3.833 3.529-7.565 7.262-11.091 11.091-.165.177-.428.231-.639.15l-50.268-20.3c-8.093-3.249-17.479-.011-21.827 7.532l-16.479 28.532c-4.351 7.547-2.46 17.289 4.404 22.666l42.676 33.362c.188.147.263.396.192.623-1.522 4.864-2.887 9.964-4.064 15.185-.051.232-.241.404-.471.438l-53.632 7.555c-8.641 1.209-15.158 8.701-15.158 17.429v32.951c0 8.729 6.517 16.221 15.151 17.428l37.447 5.273c.472 9.977 3.469 19.487 8.663 27.811l-30.808 24.084c-6.859 5.372-8.75 15.114-4.396 22.666l16.473 28.521c4.351 7.549 13.734 10.788 21.842 7.532l50.241-20.288c.228-.089.49-.032.649.141 3.529 3.833 7.262 7.565 11.091 11.091.177.163.235.426.149.638l-20.299 50.269c-3.251 8.094-.011 17.479 7.532 21.827l28.534 16.479c2.731 1.574 5.749 2.331 8.743 2.331 5.282-.001 10.491-2.355 13.92-6.735l9.794-12.526c17.741 25.931 47.552 42.983 81.274 42.983 15.424 0 30.195-3.473 43.902-10.321 3.705-1.852 5.208-6.355 3.356-10.062-1.852-3.704-6.354-5.209-10.062-3.356-11.605 5.799-24.12 8.739-37.196 8.739-45.993 0-83.41-37.418-83.41-83.41 0-24.433 10.535-47.326 28.992-63.22h108.836c18.458 15.894 28.993 38.785 28.993 63.22 0 20.347-7.409 39.946-20.863 55.188-2.741 3.104-2.445 7.845.66 10.586 1.426 1.259 3.196 1.877 4.96 1.877 2.076 0 4.144-.857 5.626-2.537 2.716-3.076 5.206-6.313 7.496-9.669l9.783 12.514c3.427 4.375 8.633 6.729 13.914 6.729 2.996 0 6.018-.758 8.752-2.333l28.522-16.474c7.548-4.352 10.788-13.736 7.531-21.842l-20.288-50.241c-.091-.227-.033-.488.141-.648 3.833-3.529 7.565-7.262 11.091-11.091.165-.178.428-.233.638-.15l50.269 20.299c8.09 3.253 17.478.012 21.827-7.531l16.479-28.533c4.35-7.548 2.459-17.289-4.404-22.665l-30.831-24.101c5.078-8.143 8.2-17.624 8.687-27.788l37.442-5.273c8.642-1.207 15.159-8.7 15.159-17.429v-32.951c-.002-8.731-6.52-16.224-15.153-17.43zm-174.889 27.263c4.143 0 7.5-3.357 7.5-7.5s-3.357-7.5-7.5-7.5h-26.135v-95.635c42.543 14.446 74.25 51.344 82.087 95.635h-20.952c-4.143 0-7.5 3.357-7.5 7.5s3.357 7.5 7.5 7.5h44.5c11.494 0 22.296 4.473 30.417 12.594 8.12 8.12 12.593 18.922 12.593 30.416 0 23.71-19.294 43-43.01 43h-290.92c-11.493 0-22.295-4.473-30.417-12.594-8.121-8.12-12.593-18.919-12.593-30.406 0-23.716 19.294-43.01 43.01-43.01zm-78.499-62.949-12.287-14.043v-45.669c0-.903.457-1.728 1.223-2.206l22.223-13.89c.839-.523 1.92-.524 2.759 0l22.225 13.89c.765.479 1.222 1.303 1.222 2.206v107.661h-49.65v-24.03l12.287-14.042c2.473-2.827 2.473-7.05-.002-9.877zm-90.341 285.888c-.797 1.017-2.242 1.297-3.355.654l-28.533-16.479c-1.117-.644-1.594-2.037-1.114-3.229l20.299-50.271c2.397-5.97.831-12.91-3.9-17.271-3.53-3.251-6.969-6.689-10.224-10.224-4.358-4.727-11.297-6.292-17.282-3.891l-50.243 20.289c-1.203.483-2.599.006-3.246-1.115l-16.472-28.522c-.645-1.119-.365-2.563.647-3.355l31.083-24.298c10.8 10.183 24.844 15.783 39.76 15.783h43.658c4.966 5.355 10.352 10.31 16.085 14.812-8.237 14.567-12.694 31.16-12.694 48.408 0 14.755 3.27 28.759 9.115 41.334zm319.833-110.064-16.478 28.532c-.645 1.117-2.042 1.592-3.23 1.115l-50.271-20.3c-5.97-2.394-12.909-.831-17.271 3.9-3.251 3.53-6.689 6.969-10.224 10.224-4.728 4.358-6.293 11.298-3.891 17.282l20.289 50.243c.483 1.205.007 2.599-1.115 3.246l-28.521 16.472c-1.117.645-2.564.364-3.356-.646l-13.591-17.385c5.947-12.849 9.116-26.925 9.116-41.328 0-17.248-4.456-33.84-12.692-48.406 5.734-4.505 11.119-9.461 16.083-14.814h43.659c15.367 0 29.346-6.016 39.736-15.803l31.101 24.312c1.018.798 1.299 2.243.656 3.356zm24.047-89.759c0 1.289-.961 2.396-2.243 2.574l-36.571 5.15c-2.304-10.854-7.676-20.826-15.702-28.852-10.953-10.954-25.522-16.987-41.023-16.987h-8.344c-8.271-52.633-46.545-96.387-97.718-111.506-1.007-4.552-3.779-8.541-7.846-11.081l-22.224-13.89c-5.665-3.541-12.989-3.541-18.657 0l-22.224 13.89c-4.071 2.545-6.844 6.538-7.849 11.096-19.662 5.818-38.012 16.06-53.343 29.845-3.08 2.77-3.332 7.512-.562 10.592 1.481 1.647 3.526 2.485 5.58 2.485 1.786 0 3.579-.635 5.012-1.923 12.452-11.196 27.132-19.766 42.89-25.127v36.447c0 1.816.659 3.571 1.855 4.938l9.821 11.225-9.82 11.224c-1.197 1.367-1.856 3.122-1.856 4.938v26.849h-82.087c2.858-16.128 8.939-31.693 17.822-45.44 2.248-3.479 1.25-8.122-2.229-10.37-3.479-2.245-8.121-1.249-10.37 2.229-10.443 16.162-17.435 34.563-20.429 53.581h-8.341c-27.813 0-51.107 19.679-56.716 45.841l-36.589-5.153c-1.274-.178-2.235-1.284-2.235-2.573v-32.951c0-1.289.961-2.396 2.244-2.574l53.65-7.558c6.39-.909 11.619-5.75 13.007-12.019 1.082-4.797 2.34-9.499 3.744-13.986 1.914-6.147-.203-12.941-5.27-16.907l-42.674-33.36c-1.017-.797-1.297-2.241-.655-3.355l16.479-28.533c.644-1.116 2.036-1.591 3.23-1.114l50.27 20.3c5.969 2.396 12.909.83 17.271-3.9 3.25-3.53 6.689-6.969 10.223-10.224 4.728-4.357 6.293-11.297 3.891-17.282l-20.289-50.243c-.484-1.205-.007-2.599 1.115-3.245l28.521-16.473c1.121-.645 2.565-.364 3.357.646l33.368 42.683c3.962 5.063 10.754 7.18 16.915 5.264 4.476-1.401 9.178-2.659 13.949-3.735 6.294-1.395 11.135-6.624 12.047-13.024l7.557-53.647c.178-1.274 1.284-2.235 2.573-2.235h32.951c1.289 0 2.396.961 2.574 2.243l7.558 53.65c.909 6.389 5.75 11.619 12.019 13.008 4.833 1.09 9.533 2.348 13.986 3.744 6.147 1.912 12.941-.202 16.907-5.27l33.36-42.674c.797-1.018 2.241-1.299 3.355-.655l28.532 16.478c1.117.645 1.594 2.038 1.115 3.23l-20.3 50.271c-2.396 5.97-.831 12.909 3.9 17.271 3.53 3.251 6.969 6.689 10.224 10.224 4.357 4.727 11.297 6.291 17.282 3.891l50.243-20.289c1.207-.481 2.6-.005 3.245 1.115l16.473 28.521c.646 1.119.365 2.564-.646 3.356l-42.683 33.368c-5.064 3.963-7.181 10.757-5.264 16.914 1.401 4.478 2.66 9.18 3.735 13.95 1.395 6.295 6.625 11.136 13.024 12.047l53.647 7.557c1.274.178 2.235 1.284 2.235 2.573v32.947z"/><path d="m232.337 456.012c0 13.048 10.615 23.663 23.663 23.663s23.663-10.615 23.663-23.663c0-13.047-10.615-23.662-23.663-23.662-13.047 0-23.663 10.615-23.663 23.662zm32.326 0c0 4.776-3.887 8.663-8.663 8.663-.299 0-.594-.015-.884-.045-4.363-.444-7.778-4.14-7.778-8.618 0-4.776 3.886-8.662 8.663-8.662 4.478 0 8.174 3.415 8.618 7.778.029.29.044.585.044.884z"/><path d="m291.355 367.699h-70.711c-13.047 0-23.663 10.615-23.663 23.662 0 13.048 10.615 23.663 23.663 23.663h70.711c13.048 0 23.663-10.615 23.663-23.663.001-13.047-10.615-23.662-23.663-23.662zm0 32.325h-70.711c-4.776 0-8.663-3.887-8.663-8.663s3.886-8.662 8.663-8.662h70.711c4.776 0 8.663 3.886 8.663 8.662s-3.886 8.663-8.663 8.663z"/><path d="m235.508 304.197c1.389 2.406 3.91 3.751 6.502 3.751 1.272 0 2.562-.324 3.743-1.006l2.747-1.586v3.172c0 4.143 3.358 7.5 7.5 7.5 4.143 0 7.5-3.357 7.5-7.5v-3.172l2.747 1.586c1.181.682 2.471 1.006 3.743 1.006 2.592 0 5.113-1.345 6.502-3.751 2.071-3.587.842-8.174-2.745-10.245l-2.748-1.586 2.748-1.586c3.587-2.071 4.816-6.658 2.745-10.245s-6.66-4.815-10.245-2.745l-2.747 1.586v-3.172c0-4.143-3.357-7.5-7.5-7.5-4.142 0-7.5 3.357-7.5 7.5v3.172l-2.747-1.586c-3.588-2.071-8.174-.843-10.245 2.745-2.071 3.587-.842 8.174 2.745 10.245l2.748 1.586-2.748 1.586c-3.587 2.071-4.816 6.658-2.745 10.245z"/><path d="m296.117 304.197c1.39 2.406 3.91 3.751 6.502 3.751 1.272 0 2.562-.324 3.743-1.006l2.747-1.586v3.172c0 4.143 3.357 7.5 7.5 7.5s7.5-3.357 7.5-7.5v-3.173l2.748 1.587c1.182.682 2.471 1.006 3.743 1.006 2.592 0 5.113-1.345 6.502-3.751 2.071-3.587.842-8.174-2.745-10.245l-2.748-1.586 2.748-1.586c3.587-2.071 4.816-6.658 2.745-10.245-2.072-3.587-6.659-4.815-10.245-2.745l-2.748 1.587v-3.173c0-4.143-3.357-7.5-7.5-7.5s-7.5 3.357-7.5 7.5v3.172l-2.747-1.586c-3.59-2.071-8.176-.843-10.245 2.745-2.071 3.587-.842 8.174 2.745 10.245l2.748 1.586-2.748 1.586c-3.587 2.071-4.816 6.658-2.745 10.245z"/><path d="m356.728 304.197c1.39 2.406 3.91 3.751 6.502 3.751 1.272 0 2.562-.324 3.743-1.006l2.747-1.586v3.172c0 4.143 3.357 7.5 7.5 7.5s7.5-3.357 7.5-7.5v-3.172l2.747 1.586c1.181.682 2.471 1.006 3.743 1.006 2.592 0 5.113-1.345 6.502-3.751 2.071-3.587.842-8.174-2.745-10.245l-2.748-1.586 2.748-1.586c3.587-2.071 4.816-6.658 2.745-10.245-2.072-3.587-6.659-4.815-10.245-2.745l-2.747 1.586v-3.172c0-4.143-3.357-7.5-7.5-7.5s-7.5 3.357-7.5 7.5v3.172l-2.747-1.586c-3.586-2.071-8.175-.843-10.245 2.745-2.071 3.587-.842 8.174 2.745 10.245l2.748 1.586-2.748 1.586c-3.587 2.071-4.817 6.658-2.745 10.245z"/><path d="m174.898 304.197c1.389 2.406 3.91 3.751 6.502 3.751 1.272 0 2.562-.324 3.743-1.006l2.747-1.586v3.172c0 4.143 3.358 7.5 7.5 7.5s7.5-3.357 7.5-7.5v-3.172l2.748 1.586c1.181.682 2.471 1.006 3.743 1.006 2.592 0 5.113-1.345 6.502-3.751 2.071-3.587.842-8.174-2.745-10.245l-2.748-1.586 2.748-1.586c3.587-2.071 4.816-6.658 2.745-10.245s-6.658-4.815-10.245-2.745l-2.748 1.586v-3.172c0-4.143-3.358-7.5-7.5-7.5s-7.5 3.357-7.5 7.5v3.172l-2.747-1.586c-3.587-2.071-8.174-.843-10.245 2.745-2.071 3.587-.842 8.174 2.745 10.245l2.748 1.586-2.748 1.586c-3.587 2.071-4.816 6.658-2.745 10.245z"/><path d="m114.288 304.197c1.389 2.406 3.91 3.751 6.502 3.751 1.272 0 2.562-.324 3.743-1.006l2.747-1.586v3.172c0 4.143 3.358 7.5 7.5 7.5s7.5-3.357 7.5-7.5v-3.172l2.748 1.586c1.181.682 2.471 1.006 3.743 1.006 2.592 0 5.113-1.345 6.502-3.751 2.071-3.587.842-8.174-2.745-10.245l-2.748-1.586 2.748-1.586c3.587-2.071 4.816-6.658 2.745-10.245s-6.658-4.815-10.245-2.745l-2.748 1.586v-3.172c0-4.143-3.358-7.5-7.5-7.5s-7.5 3.357-7.5 7.5v3.172l-2.747-1.586c-3.588-2.071-8.175-.843-10.245 2.745-2.071 3.587-.842 8.174 2.745 10.245l2.748 1.586-2.748 1.586c-3.587 2.071-4.816 6.658-2.745 10.245z"/></g></g></svg>