<svg id="filled_outline" height="512" viewBox="0 0 512 512" width="512" xmlns="http://www.w3.org/2000/svg" data-name="filled outline"><path d="m416 110.62988v377.37012h-328v-448a15.99552 15.99552 0 0 1 16-16h225.37a16.14437 16.14437 0 0 1 11.32 4.68994l70.62 70.62012a16.14443 16.14443 0 0 1 4.69 11.31982z" fill="#4e96ed"/><path d="m392 328-10.60407-21.20813a16.74023 16.74023 0 0 1 3.13579-19.32359 14.6536 14.6536 0 0 1 16.915-2.74492 14.65358 14.65358 0 0 0 13.10658 0 14.6536 14.6536 0 0 1 16.915 2.74492 16.74023 16.74023 0 0 1 3.13579 19.32359l-10.60409 21.20813z" fill="#e6b47c"/><path d="m472 456a16 16 0 0 1 16 16v16h-160v-16a16 16 0 0 1 16-16v-80a48 48 0 0 1 48-48h32a48 48 0 0 1 48 48z" fill="#ebc99b"/><rect fill="#ed6445" height="280" rx="16" width="208" x="24" y="208"/><path d="m64 240h128v24l-16 16h-96l-16-16z" fill="#90d4b1"/><path d="m152 360h48v96h-48z" fill="#f7c04a"/><path d="m56 312v144h96v-96h48v-48z" fill="#56679c"/><path d="m414.55 104h-54.55a24.00619 24.00619 0 0 1 -24-24v-54.55a15.82838 15.82838 0 0 1 4.69 3.24l70.62 70.62012a15.82323 15.82323 0 0 1 3.24 4.68988z" fill="#96cffa"/><path d="m480 449.376v-73.376a56.08682 56.08682 0 0 0 -43.73987-54.63184l5.49915-10.998a24.70766 24.70766 0 0 0 -4.63379-28.55762 22.61706 22.61706 0 0 0 -26.14942-4.24414 6.68522 6.68522 0 0 1 -5.95117 0 22.6243 22.6243 0 0 0 -26.1499 4.24316 24.70875 24.70875 0 0 0 -4.63428 28.5586l5.49915 10.998a56.08682 56.08682 0 0 0 -43.73987 54.63184v73.376a24.039 24.039 0 0 0 -16 22.624v16a8.00008 8.00008 0 0 0 8 8h160a8.00008 8.00008 0 0 0 8-8v-16a24.039 24.039 0 0 0 -16-22.624zm-89.81055-156.251a6.64164 6.64164 0 0 1 7.68018-1.24609 22.76123 22.76123 0 0 0 20.26172 0 6.646 6.646 0 0 1 7.68017 1.24707 8.72705 8.72705 0 0 1 1.63721 10.08789l-8.39307 16.78613h-22.11132l-8.39307-16.78613a8.7275 8.7275 0 0 1 1.63818-10.08887zm89.81055 186.875h-144v-8a8.00917 8.00917 0 0 1 8-8h24v-16h-16v-72a40.04552 40.04552 0 0 1 40-40h32a40.04552 40.04552 0 0 1 40 40v72h-8v16h16a8.00917 8.00917 0 0 1 8 8z"/><path d="m416 352h-16v16.40332a20.00042 20.00042 0 0 0 4 39.59668h8a4 4 0 0 1 0 8h-28v16h16v16h16v-16.40332a20.00042 20.00042 0 0 0 -4-39.59668h-8a4 4 0 0 1 0-8h28v-16h-16z"/><path d="m216 200h-176a24.02718 24.02718 0 0 0 -24 24v248a24.02718 24.02718 0 0 0 24 24h176a24.02718 24.02718 0 0 0 24-24v-248a24.02718 24.02718 0 0 0 -24-24zm8 272a8.00917 8.00917 0 0 1 -8 8h-176a8.00917 8.00917 0 0 1 -8-8v-248a8.00917 8.00917 0 0 1 8-8h176a8.00917 8.00917 0 0 1 8 8z"/><path d="m74.34326 285.65723a8.00035 8.00035 0 0 0 5.65674 2.34277h96a8.00035 8.00035 0 0 0 5.65674-2.34277l16-16a8.00076 8.00076 0 0 0 2.34326-5.65723v-24a8.00008 8.00008 0 0 0 -8-8h-128a8.00008 8.00008 0 0 0 -8 8v24a8.00076 8.00076 0 0 0 2.34326 5.65723zm-2.34326-37.65723h112v12.68652l-11.31348 11.31348h-89.373l-11.31352-11.31348z"/><path d="m200 304h-144a8.00008 8.00008 0 0 0 -8 8v144a8.00008 8.00008 0 0 0 8 8h144a8.00008 8.00008 0 0 0 8-8v-144a8.00008 8.00008 0 0 0 -8-8zm-8 48h-32v-32h32zm-128 16h32v32h-32zm48 0h32v32h-32zm32-16h-32v-32h32zm-80-32h32v32h-32zm0 96h32v32h-32zm48 0h32v32h-32zm80 32h-32v-80h32z"/><path d="m424 264v-153.373a23.84385 23.84385 0 0 0 -7.02979-16.9707l-70.627-70.62695a23.84254 23.84254 0 0 0 -16.97065-7.02935h-225.37256a24.02718 24.02718 0 0 0 -24 24v144h16v-144a8.00917 8.00917 0 0 1 8-8h224v48a32.03635 32.03635 0 0 0 32 32h24v-16h-24a16.01833 16.01833 0 0 1 -16-16v-36.686l61.65674 61.65674a7.94524 7.94524 0 0 1 2.34326 5.65626v153.373z"/><path d="m384 256v-112h-16v24h-72v-32h32v-16h-112v-24h96v-16h-184a8.00008 8.00008 0 0 0 -8 8v96h16v-48h64v48h80v32h-24v16h24v32h-24v16h24v32h-24v16h24v32h-24v16h24v32h-24v16h64v-16h-24v-32h32v-16h-32v-32h48v-16h-48v-32h64v-16h-64v-32h72v24zm-248-136v-24h64v24zm80 48v-32h64v32zm80 48v-32h72v32z"/><path d="m256 456h48v16h-48z"/></svg>