<svg id="Capa_1" enable-background="new 0 0 512.013 512.013" height="512" viewBox="0 0 512.013 512.013" width="512" xmlns="http://www.w3.org/2000/svg"><g><g><path d="m371.973 100.346v139.1l-16.567 16.567 16.567 16.567v49.699c0 9.15-7.417 16.567-16.567 16.567h-16.566l-82.833-16.567-82.833 16.567h-16.567c-9.15 0-16.567-7.417-16.567-16.567v-49.699l16.567-16.567-16.567-16.567v-139.1l115.967-74z" fill="#ff4155"/><path d="m348.975 85.671v236.609c0 7.784-5.375 14.295-12.611 16.072l2.476.495h16.567c9.15 0 16.567-7.417 16.567-16.567v-49.7l-16.567-16.567 16.567-16.567v-139.1z" fill="#e80054"/><g><g><path d="m389.025 132.669-128.424-85.616c-2.782-1.855-6.407-1.855-9.19 0l-128.424 85.616c-3.807 2.538-8.95 1.509-11.487-2.298l-9.189-13.785c-2.538-3.807-1.509-8.949 2.298-11.487l142.208-94.805c5.565-3.71 12.814-3.71 18.379 0l142.208 94.806c3.806 2.537 4.835 7.68 2.298 11.487l-9.189 13.785c-2.539 3.806-7.682 4.835-11.488 2.297z" fill="#3c58a0"/></g></g><path d="m407.404 105.1-142.208-94.805c-5.565-3.71-12.814-3.71-18.379 0l-2.308 1.538 139.9 93.267c3.806 2.538 4.835 7.68 2.297 11.487l-6.709 10.064 9.027 6.018c3.807 2.538 8.949 1.509 11.487-2.297l9.189-13.785c2.539-3.806 1.51-8.949-2.296-11.487z" fill="#2a428c"/><path d="m140.04 239.446h25.133c4.418 0 8 3.582 8 8v17.133c0 4.418-3.582 8-8 8h-25.133z" fill="#e9efff"/><path d="m371.973 272.579h-25.133c-4.418 0-8-3.582-8-8v-17.133c0-4.418 3.582-8 8-8h25.133z" fill="#e9efff"/><path d="m348.975 239.446h22.998v33.133h-22.998z" fill="#d3dcfb"/><g><path d="m272.573 363.696v-33.133h-33.133v33.133c0 4.575-3.709 8.283-8.283 8.283h-157.384c-9.149 0-16.567 7.417-16.567 16.567v54.7h33.134v-29.85c0-4.575 3.709-8.283 8.283-8.283h132.533c4.575 0 8.283 3.709 8.283 8.283v29.85h33.133v-29.85c0-4.575 3.708-8.283 8.283-8.283h132.535c4.575 0 8.283 3.709 8.283 8.283v29.85h33.133v-54.7c0-9.15-7.417-16.567-16.567-16.567h-157.383c-4.574 0-8.283-3.708-8.283-8.283z" fill="#9bd8f9"/><g><g><g><path d="m257.89 371.979h22.967c-4.575 0-8.283-3.709-8.283-8.283v-33.133h-22.967v33.133c-.001 4.575 3.708 8.283 8.283 8.283z" fill="#73c3f9"/></g><g><path d="m438.24 371.979h-22.967c9.149 0 16.567 7.417 16.567 16.567v54.7h22.967v-54.7c-.001-9.149-7.418-16.567-16.567-16.567z" fill="#73c3f9"/></g></g></g></g><ellipse cx="256.006" cy="123.479" fill="#9bd8f9" rx="16.567" ry="16.567" transform="matrix(.946 -.325 .325 .946 -26.231 89.885)"/><g><path d="m222.873 200.513h66.267v77.867h-66.267z" fill="#4fabf7"/><path d="m297.706 206.313h-83.4c-4.418 0-8-3.582-8-8v-17.133c0-4.418 3.582-8 8-8h83.4c4.418 0 8 3.582 8 8v17.133c0 4.418-3.581 8-8 8z" fill="#e9efff"/><path d="m297.706 173.179h-23c4.418 0 8 3.582 8 8v17.133c0 4.418-3.582 8-8 8h23c4.418 0 8-3.582 8-8v-17.133c0-4.418-3.581-8-8-8z" fill="#d3dcfb"/></g><path d="m305.706 311.513h-99.4v-30.933c0-4.418 3.582-8 8-8h83.4c4.418 0 8 3.582 8 8z" fill="#e9efff"/><path d="m338.84 338.846h-165.667v-25.133c0-4.418 3.582-8 8-8h149.667c4.418 0 8 3.582 8 8z" fill="#d3dcfb"/><g fill="#ffdd40"><path d="m107.473 504.513h-67.4c-8.837 0-16-7.164-16-16v-34.267c0-8.837 7.163-16 16-16h67.4c8.837 0 16 7.163 16 16v34.267c0 8.836-7.163 16-16 16z"/><path d="m289.706 504.513h-67.4c-8.837 0-16-7.164-16-16v-34.267c0-8.837 7.163-16 16-16h67.4c8.837 0 16 7.163 16 16v34.267c0 8.836-7.163 16-16 16z"/><path d="m471.94 504.513h-67.4c-8.837 0-16-7.164-16-16v-34.267c0-8.837 7.163-16 16-16h67.4c8.836 0 16 7.163 16 16v34.267c0 8.836-7.164 16-16 16z"/></g><path d="m471.94 438.246h-23.1c8.837 0 16 7.163 16 16v34.267c0 8.836-7.163 16-16 16h23.1c8.837 0 16-7.164 16-16v-34.267c0-8.836-7.164-16-16-16z" fill="#ffb332"/><path d="m289.706 438.246h-23.1c8.837 0 16 7.163 16 16v34.267c0 8.836-7.163 16-16 16h23.1c8.837 0 16-7.164 16-16v-34.267c0-8.836-7.163-16-16-16z" fill="#ffb332"/><path d="m107.473 438.246h-23.1c8.837 0 16 7.163 16 16v34.267c0 8.836-7.163 16-16 16h23.1c8.837 0 16-7.164 16-16v-34.267c0-8.836-7.163-16-16-16z" fill="#ffb332"/><path d="m297.706 272.579h-23c4.418 0 8 3.582 8 8v30.933h23v-30.933c0-4.418-3.581-8-8-8z" fill="#d3dcfb"/><path d="m330.84 305.713h-23c4.418 0 8 3.582 8 8v25.133h23v-25.133c0-4.419-3.582-8-8-8z" fill="#bec8f7"/></g><g><path d="m280.073 123.48c0-13.271-10.796-24.067-24.067-24.067s-24.067 10.796-24.067 24.067 10.796 24.066 24.067 24.066 24.067-10.796 24.067-24.066zm-33.134 0c0-4.999 4.067-9.067 9.067-9.067 4.999 0 9.067 4.067 9.067 9.067 0 4.999-4.067 9.066-9.067 9.066-4.999 0-9.067-4.067-9.067-9.066z"/><path d="m471.94 430.746h-9.634v-42.2c0-13.27-10.796-24.066-24.066-24.066h-157.384c-.432 0-.783-.352-.783-.783v-17.35h75.333c13.271 0 24.067-10.796 24.067-24.067v-186.965l5.392 3.594c3.508 2.339 7.716 3.171 11.851 2.345 4.134-.827 7.699-3.214 10.037-6.722l9.19-13.784c4.828-7.241 2.864-17.06-4.378-21.888l-142.209-94.805c-8.109-5.406-18.59-5.406-26.699 0l-142.209 94.805c-7.241 4.828-9.205 14.646-4.377 21.887l9.189 13.785c2.339 3.508 5.903 5.895 10.038 6.722 1.042.208 2.088.311 3.128.311 3.083 0 6.099-.907 8.722-2.656l5.392-3.594v22.865c0 4.142 3.358 7.5 7.5 7.5s7.5-3.358 7.5-7.5v-32.865l108.033-72.021c.264-.176.604-.176.869 0l108.032 72.021v106.631h-17.634c-8.547 0-15.5 6.953-15.5 15.5v17.134c0 8.547 6.953 15.5 15.5 15.5h17.633v42.2c0 4.999-4.067 9.067-9.067 9.067h-9.066v-17.633c0-8.547-6.953-15.5-15.5-15.5h-17.633v-17.634c0-8.547-6.953-15.5-15.5-15.5h-1.067v-51.267h1.067c8.547 0 15.5-6.953 15.5-15.5v-17.133c0-8.547-6.953-15.5-15.5-15.5h-83.4c-8.547 0-15.5 6.953-15.5 15.5v17.133c0 8.547 6.953 15.5 15.5 15.5h1.067v51.267h-1.067c-8.547 0-15.5 6.953-15.5 15.5v17.633h-17.633c-8.547 0-15.5 6.953-15.5 15.5v17.633h-9.066c-4.999 0-9.067-4.067-9.067-9.067v-42.2h17.633c8.547 0 15.5-6.953 15.5-15.5v-17.134c0-8.547-6.953-15.5-15.5-15.5h-17.634v-43.765c0-4.142-3.358-7.5-7.5-7.5s-7.5 3.358-7.5 7.5v134.1c0 13.27 10.796 24.067 24.067 24.067h75.333v17.35c0 .432-.352.783-.783.783h-157.384c-13.27 0-24.066 10.796-24.066 24.066v42.2h-9.634c-12.958 0-23.5 10.542-23.5 23.5v34.267c0 12.958 10.542 23.5 23.5 23.5h67.4c12.958 0 23.5-10.542 23.5-23.5v-34.267c0-12.958-10.542-23.5-23.5-23.5h-9.633v-17.35c0-.432.352-.783.783-.783h26.416c4.142 0 7.5-3.358 7.5-7.5s-3.358-7.5-7.5-7.5h-26.416c-8.703 0-15.783 7.08-15.783 15.783v17.35h-18.133v-42.2c0-4.999 4.067-9.066 9.066-9.066h157.383c8.703 0 15.783-7.081 15.783-15.783v-17.35h18.134v17.35c0 8.703 7.08 15.783 15.783 15.783h157.384c4.999 0 9.066 4.067 9.066 9.066v42.2h-18.133v-17.35c0-8.703-7.08-15.783-15.783-15.783h-132.534c-8.703 0-15.783 7.08-15.783 15.783v17.35h-18.134v-17.35c0-8.703-7.08-15.783-15.783-15.783h-76.117c-4.142 0-7.5 3.358-7.5 7.5s3.358 7.5 7.5 7.5h76.117c.432 0 .783.352.783.783v17.35h-9.633c-12.958 0-23.5 10.542-23.5 23.5v34.267c0 12.958 10.542 23.5 23.5 23.5h67.4c12.958 0 23.5-10.542 23.5-23.5v-34.267c0-12.958-10.542-23.5-23.5-23.5h-9.633v-17.35c0-.432.352-.783.783-.783h132.534c.432 0 .783.352.783.783v17.35h-9.633c-12.958 0-23.5 10.542-23.5 23.5v34.267c0 12.958 10.542 23.5 23.5 23.5h67.4c12.958 0 23.5-10.542 23.5-23.5v-34.267c0-12.958-10.542-23.5-23.5-23.5zm-215.934-392.593c-3.048 0-6.096.887-8.755 2.66l-128.424 85.616c-.179.12-.377.159-.588.116-.211-.042-.378-.154-.498-.333l-9.189-13.785c-.119-.179-.158-.376-.116-.587.042-.212.155-.379.333-.499l142.208-94.805c3.055-2.037 7.003-2.037 10.059 0l142.207 94.805c.179.12.292.287.334.499.042.211.003.409-.116.588l-9.19 13.785c-.119.179-.287.291-.497.333-.212.042-.409.003-.588-.116l-128.424-85.617c-2.66-1.773-5.707-2.66-8.756-2.66zm90.834 226.927c-.276 0-.5-.224-.5-.5v-17.134c0-.276.224-.5.5-.5h17.633v18.134zm-181.667-18.134c.276 0 .5.224.5.5v17.134c0 .276-.224.5-.5.5h-17.633v-18.134zm-57.7 198.8c4.687 0 8.5 3.813 8.5 8.5v34.267c0 4.687-3.813 8.5-8.5 8.5h-67.4c-4.687 0-8.5-3.813-8.5-8.5v-34.267c0-4.687 3.813-8.5 8.5-8.5zm174.167-180.666h-18.133v-51.267h18.133zm-67.834-66.767v-17.133c0-.276.224-.5.5-.5h83.4c.276 0 .5.224.5.5v17.133c0 .276-.224.5-.5.5h-83.4c-.276 0-.5-.225-.5-.5zm16.567 15.5h18.133v51.267h-18.133zm-16.567 66.767c0-.276.224-.5.5-.5h83.4c.276 0 .5.224.5.5v17.633h-84.4zm-33.133 50.766v-17.633c0-.276.224-.5.5-.5h149.667c.276 0 .5.224.5.5v17.633zm117.534 122.9v34.267c0 4.687-3.813 8.5-8.5 8.5h-67.4c-4.687 0-8.5-3.813-8.5-8.5v-34.267c0-4.687 3.813-8.5 8.5-8.5h67.4c4.687 0 8.5 3.813 8.5 8.5zm182.233 34.267c0 4.687-3.813 8.5-8.5 8.5h-67.4c-4.687 0-8.5-3.813-8.5-8.5v-34.267c0-4.687 3.813-8.5 8.5-8.5h67.4c4.687 0 8.5 3.813 8.5 8.5z"/></g></g></svg>