<svg height="512pt" viewBox="0 0 512.00101 512" width="512pt" xmlns="http://www.w3.org/2000/svg"><path d="m504.402344 80.742188v345.121093c0 23.605469-19.128906 42.734375-42.738282 42.734375h-244.105468c-23.609375 0-42.746094-19.128906-42.746094-42.734375v-345.121093c0-23.609376 19.136719-42.75 42.746094-42.75h244.105468c23.609376 0 42.738282 19.140624 42.738282 42.75zm0 0" fill="#f4c84d"/><path d="m271.335938 197.996094v250.703125c0 7.570312-2.714844 14.511719-7.210938 19.898437h-46.566406c-23.609375 0-42.746094-19.128906-42.746094-42.734375v-258.921875h65.480469c17.144531 0 31.042969 13.902344 31.042969 31.054688zm0 0" fill="#d1a86d"/><path d="m463.875 88.269531v337.613281c0 1.207032-.972656 2.1875-2.191406 2.1875h-244.15625c-1.207032 0-2.1875-.980468-2.1875-2.1875v-337.613281c0-1.21875.980468-2.199219 2.1875-2.199219h244.15625c1.21875 0 2.191406.980469 2.191406 2.199219zm0 0" fill="#e6e6e6"/><path d="m271.335938 197.996094v230.074218h-53.808594c-1.207032 0-2.1875-.980468-2.1875-2.1875v-258.941406h24.953125c17.144531 0 31.042969 13.902344 31.042969 31.054688zm0 0" fill="#ccc"/><path d="m247.019531 222.3125v250.703125c0 17.144531-13.898437 31.046875-31.042969 31.046875h-177.328124c-4.328126 0-8.441407-.882812-12.1875-2.484375-11.085938-4.742187-18.867188-15.746094-18.867188-28.5625v-250.703125c0-17.152344 13.910156-31.054688 31.054688-31.054688h177.328124c17.144532 0 31.042969 13.902344 31.042969 31.054688zm0 0" fill="#75b2cc"/><path d="m247.019531 222.3125v63.203125h-239.425781v-63.203125c0-17.152344 13.910156-31.054688 31.054688-31.054688h177.328124c17.144532 0 31.042969 13.902344 31.042969 31.054688zm0 0" fill="#e6e6e6"/><g fill="#63a3ba"><path d="m26.460938 285.515625v216.0625c-11.085938-4.742187-18.867188-15.746094-18.867188-28.5625v-187.5zm0 0"/><path d="m87.402344 285.515625h18.867187v218.546875h-18.867187zm0 0"/><path d="m167.214844 285.515625h18.867187v218.546875h-18.867187zm0 0"/></g><path d="m331.71875 364.515625c-6.535156 0-12.679688-3.292969-16.285156-8.824219l-43.753906-67.085937c-5.867188-8.996094-3.328126-21.046875 5.667968-26.910157 8.992188-5.867187 21.042969-3.332031 26.910156 5.664063l24.285157 37.242187 65.160156-145.410156c4.390625-9.800781 15.894531-14.183594 25.695313-9.792968 9.800781 4.390624 14.1875 15.894531 9.792968 25.695312l-79.726562 177.925781c-2.910156 6.492188-9.132813 10.878907-16.222656 11.4375-.511719.039063-1.019532.058594-1.523438.058594zm0 0" fill="#f25f5f"/><path d="m461.664062 30.394531h-26.839843c-.460938-16.835937-14.292969-30.394531-31.238281-30.394531h-127.957032c-16.945312 0-30.777344 13.558594-31.238281 30.394531h-26.832031c-27.761719 0-50.347656 22.585938-50.347656 50.347657v102.917968h-93.597657c-4.195312 0-7.597656 3.402344-7.597656 7.597656 0 4.199219 3.402344 7.601563 7.597656 7.601563h142.359375c12.933594 0 23.453125 10.519531 23.453125 23.449219v55.605468h-224.226562v-55.605468c0-12.929688 10.519531-23.449219 23.449219-23.449219h4.566406c4.199218 0 7.601562-3.402344 7.601562-7.601563 0-4.195312-3.402344-7.597656-7.601562-7.597656h-4.566406c-21.3125 0-38.648438 17.335938-38.648438 38.648438v250.703125c0 21.3125 17.335938 38.648437 38.648438 38.648437h177.328124c20.238282 0 36.878907-15.636718 38.503907-35.460937h207.183593c27.757813 0 50.335938-22.582031 50.335938-50.335938v-345.121093c0-27.761719-22.578125-50.347657-50.335938-50.347657zm-89.902343 48.078125h-64.308594c-3.902344-12.820312-15.832031-22.179687-29.910156-22.179687h-1.914063c-6.972656 0-12.90625-4.476563-15.121094-10.699219h158.203126c-2.214844 6.222656-8.148438 10.699219-15.125 10.699219h-1.914063c-14.078125 0-26.007813 9.355469-29.910156 22.179687zm-2.566407 15.195313c-2.410156 5.832031-8.15625 9.953125-14.847656 9.953125h-29.480468c-6.691407 0-12.4375-4.121094-14.847657-9.953125zm-93.566406-78.46875h127.957032c8.566406 0 15.566406 6.742187 16.019531 15.195312h-159.996094c.457031-8.453125 7.457031-15.195312 16.019531-15.195312zm-93.21875 65.542969c0-19.382813 15.765625-35.148438 35.148438-35.148438h27.28125c2.550781 14.691406 15.382812 25.898438 30.789062 25.898438h1.914063c5.488281 0 10.335937 2.769531 13.234375 6.980468h-73.25c-5.398438 0-9.789063 4.394532-9.789063 9.796875v95.390625h-25.328125zm57.015625 270.019531h-64.609375v-57.652344h64.609375zm-79.808593 145.703125h-64.609376v-57.652344h64.609376zm0-72.851563h-64.609376v-57.652343h64.609376zm-144.417969-57.652343h64.609375v57.652343h-64.609375zm79.808593-15.199219v-57.652344h64.609376v57.652344zm-15.199218-57.652344v57.652344h-64.609375v-57.652344zm-64.609375 179.902344v-34.199219h64.609375v57.648438h-41.160156c-12.929688.003906-23.449219-10.519532-23.449219-23.449219zm200.773437 23.453125h-41.15625v-130.503906h64.609375v107.050781c0 12.929687-10.519531 23.453125-23.453125 23.453125zm280.828125-70.601563c0 19.375-15.761719 35.136719-35.136719 35.136719h-207.042968v-25.328125h207.0625c5.398437 0 9.789062-4.390625 9.789062-9.789063v-48.195312c0-4.195312-3.402344-7.597656-7.597656-7.597656-4.199219 0-7.601562 3.402344-7.601562 7.597656v42.785156h-201.652344v-198.164062c0-18.933594-13.6875-34.71875-31.683594-38.007813v-90.632812h71.273438c2.851562 14.320312 15.511718 25.148437 30.65625 25.148437h29.480468c15.144532 0 27.804688-10.828125 30.65625-25.148437h71.269532v253.621093c0 4.199219 3.402343 7.601563 7.601562 7.601563 4.195312 0 7.597656-3.402344 7.597656-7.601563v-259.019531c0-5.402343-4.390625-9.796875-9.789062-9.796875h-73.246094c2.898438-4.210937 7.75-6.980468 13.234375-6.980468h1.914063c15.410156 0 28.242187-11.207032 30.792968-25.898438h27.285156c19.375 0 35.136719 15.765625 35.136719 35.148438zm0 0"/><path d="m174.867188 214.191406c-6.890626 0-10.6875 3.429688-10.6875 9.65625v9.753906c0 6.230469 3.796874 9.65625 10.6875 9.65625 6.890624 0 10.6875-3.429687 10.6875-9.65625v-9.753906c0-6.226562-3.796876-9.65625-10.6875-9.65625zm0 6.738282c2.027343 0 3.054687.980468 3.054687 2.917968v9.753906c0 1.9375-1.027344 2.917969-3.054687 2.917969-2.007813 0-2.988282-.953125-2.988282-2.917969v-9.753906c0-1.964844.976563-2.917968 2.988282-2.917968zm0 0"/><path d="m202.417969 211.375c-1.472657 0-2.648438.703125-3.226563 1.929688l-24.117187 49.535156c-.242188.488281-.382813 1.027344-.382813 1.476562 0 1.941406 1.699219 4.019532 4.230469 4.019532 1.488281 0 2.902344-.792969 3.433594-1.929688l24.183593-49.535156c.257813-.519532.3125-1.089844.3125-1.476563 0-2.40625-2.292968-4.019531-4.433593-4.019531zm0 0"/><path d="m195.71875 245.972656v9.753906c0 6.226563 3.792969 9.65625 10.683594 9.65625s10.6875-3.429687 10.6875-9.65625v-9.753906c0-6.226562-3.796875-9.65625-10.6875-9.65625s-10.683594 3.429688-10.683594 9.65625zm7.699219 0c0-1.964844.976562-2.917968 2.984375-2.917968 2.027344 0 3.058594.980468 3.058594 2.917968v9.753906c0 1.9375-1.03125 2.917969-3.058594 2.917969-2.007813 0-2.984375-.953125-2.984375-2.917969zm0 0"/><path d="m111.542969 214.191406c-6.890625 0-10.6875 3.429688-10.6875 9.65625v9.753906c0 6.230469 3.796875 9.65625 10.6875 9.65625s10.6875-3.429687 10.6875-9.65625v-9.753906c0-6.226562-3.796875-9.65625-10.6875-9.65625zm0 6.738282c2.027343 0 3.054687.980468 3.054687 2.917968v9.753906c0 1.9375-1.027344 2.917969-3.054687 2.917969-2.007813 0-2.988281-.953125-2.988281-2.917969v-9.753906c0-1.964844.976562-2.917968 2.988281-2.917968zm0 0"/><path d="m139.09375 211.375c-1.472656 0-2.648438.703125-3.226562 1.929688l-24.117188 49.535156c-.242188.488281-.382812 1.027344-.382812 1.476562 0 1.941406 1.699218 4.019532 4.230468 4.019532 1.488282 0 2.902344-.792969 3.433594-1.929688l24.183594-49.535156c.257812-.519532.3125-1.089844.3125-1.476563 0-2.40625-2.292969-4.019531-4.433594-4.019531zm0 0"/><path d="m132.394531 245.972656v9.753906c0 6.226563 3.792969 9.65625 10.683594 9.65625s10.6875-3.429687 10.6875-9.65625v-9.753906c0-6.226562-3.796875-9.65625-10.6875-9.65625s-10.683594 3.429688-10.683594 9.65625zm7.699219 0c0-1.964844.976562-2.917968 2.984375-2.917968 2.027344 0 3.058594.980468 3.058594 2.917968v9.753906c0 1.9375-1.03125 2.917969-3.058594 2.917969-2.007813 0-2.984375-.953125-2.984375-2.917969zm0 0"/><path d="m37.53125 223.847656v9.753906c0 6.230469 3.796875 9.65625 10.6875 9.65625s10.6875-3.429687 10.6875-9.65625v-9.753906c0-6.226562-3.796875-9.65625-10.6875-9.65625s-10.6875 3.429688-10.6875 9.65625zm10.6875-2.917968c2.027344 0 3.054688.980468 3.054688 2.917968v9.753906c0 1.9375-1.027344 2.917969-3.054688 2.917969-2.007812 0-2.988281-.953125-2.988281-2.917969v-9.753906c0-1.964844.976562-2.917968 2.988281-2.917968zm0 0"/><path d="m75.769531 211.375c-1.472656 0-2.648437.703125-3.226562 1.929688l-24.117188 49.535156c-.242187.488281-.382812 1.027344-.382812 1.476562 0 1.941406 1.699219 4.019532 4.230469 4.019532 1.488281 0 2.902343-.792969 3.433593-1.929688l24.183594-49.535156c.257813-.519532.3125-1.089844.3125-1.476563 0-2.40625-2.292969-4.019531-4.433594-4.019531zm0 0"/><path d="m69.070312 245.972656v9.753906c0 6.226563 3.792969 9.65625 10.683594 9.65625s10.6875-3.429687 10.6875-9.65625v-9.753906c0-6.226562-3.796875-9.65625-10.6875-9.65625s-10.683594 3.429688-10.683594 9.65625zm7.699219 0c0-1.964844.976563-2.917968 2.984375-2.917968 2.027344 0 3.058594.980468 3.058594 2.917968v9.753906c0 1.9375-1.03125 2.917969-3.058594 2.917969-2.007812 0-2.984375-.953125-2.984375-2.917969zm0 0"/><path d="m422.507812 142.460938c-6.59375-2.953126-13.941406-3.164063-20.691406-.589844-6.75 2.574218-12.09375 7.621094-15.046875 14.210937l-59.464843 132.707031-16.683594-25.582031c-8.148438-12.488281-24.9375-16.023437-37.425782-7.878906-12.492187 8.148437-16.027343 24.9375-7.878906 37.425781l43.75 67.089844c5.015625 7.683594 13.480469 12.269531 22.652344 12.269531.703125 0 1.417969-.027343 2.117188-.082031 9.871093-.773438 18.515624-6.871094 22.566406-15.902344l79.726562-177.925781c2.953125-6.59375 3.164063-13.941406.589844-20.691406s-7.621094-12.09375-14.210938-15.050781zm-.25 29.527343-79.726562 177.925781c-1.773438 3.957032-5.558594 6.625-9.882812 6.964844-4.351563.339844-8.488282-1.714844-10.851563-5.339844l-43.75-67.085937c-3.570313-5.472656-2.023437-12.824219 3.449219-16.394531 1.992187-1.296875 4.234375-1.917969 6.453125-1.917969 3.871093 0 7.671875 1.890625 9.941406 5.371094l24.289063 37.242187c1.519531 2.328125 4.191406 3.640625 6.960937 3.425782 2.769531-.21875 5.203125-1.933594 6.339844-4.46875l65.15625-145.414063c1.292969-2.886719 3.636719-5.097656 6.589843-6.226563 2.957032-1.125 6.179688-1.03125 9.066407.261719s5.097656 3.636719 6.222656 6.589844c1.128906 2.957031 1.035156 6.175781-.257813 9.066406zm0 0"/><path d="m195.195312 331.585938h26.34375c4.195313 0 7.597657-3.402344 7.597657-7.597657 0-4.199219-3.402344-7.601562-7.597657-7.601562h-26.34375c-4.195312 0-7.597656 3.402343-7.597656 7.601562 0 4.195313 3.402344 7.597657 7.597656 7.597657zm0 0"/><path d="m221.539062 420.472656h-5.574218v-5.570312c0-4.199219-3.402344-7.601563-7.597656-7.601563-4.195313 0-7.597657 3.402344-7.597657 7.601563v5.570312h-5.574219c-4.195312 0-7.597656 3.402344-7.597656 7.597656 0 4.199219 3.402344 7.601563 7.597656 7.601563h5.574219v5.570313c0 4.199218 3.402344 7.601562 7.597657 7.601562 4.195312 0 7.597656-3.402344 7.597656-7.601562v-5.570313h5.574218c4.195313 0 7.597657-3.402344 7.597657-7.601563 0-4.195312-3.402344-7.597656-7.597657-7.597656zm0 0"/></svg>