<svg height="512pt" viewBox="-12 0 511 512" width="512pt" xmlns="http://www.w3.org/2000/svg"><path d="m306.675781 415.316406 21.503907 23.296875c-9.410157 3.75-19.113282 6.71875-29.011719 8.875v47.445313c-.015625 4.707031-3.828125 8.519531-8.535157 8.53125h-68.265624c-4.707032-.011719-8.519532-3.824219-8.535157-8.53125v-47.445313c-22.230469-4.878906-43.433593-13.632812-62.632812-25.855469l-9.300781 9.300782-24.152344 24.148437c-1.589844 1.636719-3.773438 2.5625-6.058594 2.5625-2.28125 0-4.464844-.925781-6.058594-2.5625l-6.738281-6.742187-41.472656-41.46875c-1.636719-1.59375-2.5625-3.777344-2.5625-6.058594 0-2.285156.925781-4.46875 2.5625-6.058594l33.449219-33.453125c-12.226563-19.199219-20.976563-40.402343-25.855469-62.632812h-47.445313c-4.707031-.015625-8.519531-3.828125-8.53125-8.535157v-68.265624c.011719-4.707032 3.824219-8.519532 8.53125-8.535157h47.445313c4.878906-22.230469 13.628906-43.433593 25.855469-62.632812l-33.449219-33.453125c-1.636719-1.589844-2.5625-3.773438-2.5625-6.058594 0-2.28125.925781-4.464844 2.5625-6.058594l48.210937-48.210937c1.59375-1.636719 3.777344-2.5625 6.058594-2.5625 2.285156 0 4.46875.925781 6.058594 2.5625l33.453125 33.449219c19.199219-12.222657 40.402343-20.976563 62.632812-25.855469v-47.445313c.015625-4.707031 3.828125-8.519531 8.535157-8.53125h68.265624c4.707032.011719 8.519532 3.824219 8.535157 8.53125v47.445313c9.898437 2.15625 19.601562 5.125 29.011719 8.875l-20.480469 24.234375 3.242187 65.023437-56.0625 82.175781 52.136719 105.730469zm0 0" fill="#283593"/><path d="m281.074219 415.316406 21.503906 23.296875c-9.410156 3.75-19.113281 6.71875-29.011719 8.875v47.445313c-.011718 4.707031-3.824218 8.519531-8.53125 8.53125h-42.667968c-4.707032-.011719-8.519532-3.824219-8.535157-8.53125v-47.445313c-22.230469-4.878906-43.433593-13.632812-62.632812-25.855469l-9.300781 9.300782c-5.632813-2.816406-25.175782 33.195312-30.464844 29.867187l-12.542969-12.460937-41.472656-41.46875c-1.636719-1.59375-2.5625-3.777344-2.5625-6.058594 0-2.285156.925781-4.46875 2.5625-6.058594l33.449219-33.453125c-12.226563-19.199219-20.976563-40.402343-25.855469-62.632812h-47.445313c-4.707031-.015625-8.519531-3.828125-8.53125-8.535157v-68.265624c.011719-4.707032 3.824219-8.519532 8.53125-8.535157h47.445313c4.878906-22.230469 13.628906-43.433593 25.855469-62.632812l-33.449219-33.453125c-1.636719-1.589844-2.5625-3.773438-2.5625-6.058594 0-2.28125.925781-4.464844 2.5625-6.058594l41.472656-41.46875 12.542969-12.460937c5.289062-3.328125 24.832031 32.683593 30.464844 29.867187l9.300781 9.300782c19.199219-12.222657 40.402343-20.976563 62.632812-25.855469v-47.445313c.015625-4.707031 3.828125-8.519531 8.535157-8.53125h42.667968c4.707032.011719 8.519532 3.824219 8.53125 8.53125v47.445313c9.898438 2.15625 19.601563 5.125 29.011719 8.875l-20.476563 24.234375 3.242188 65.023437-56.066406 82.175781 52.140625 105.730469zm0 0" fill="#3f51b5"/><path d="m307.699219 168.535156-47.957031 85.332032 47.957031 93.355468v44.542969c-16.359375 6.1875-33.707031 9.339844-51.199219 9.300781-4.21875.015625-8.433594-.183594-12.628906-.597656-34.625-2.964844-67.015625-18.328125-91.222656-43.261719-26.441407-27.050781-41.234376-63.378906-41.214844-101.207031-.023438-75.257812 57.542968-138.015625 132.523437-144.46875h.253907c4.082031-.417969 8.183593-.617188 12.289062-.597656 17.492188-.039063 34.839844 3.113281 51.199219 9.300781zm0 0" fill="#00838f"/><path d="m282.101562 168.535156-47.957031 85.332032 47.957031 93.355468v44.542969c-12.269531 4.6875-25.140624 7.617187-38.230468 8.703125-34.625-2.964844-67.015625-18.328125-91.222656-43.261719-26.441407-27.050781-41.234376-63.378906-41.214844-101.207031-.023438-75.257812 57.542968-138.015625 132.523437-144.46875h.253907c12.96875 1.167969 25.714843 4.09375 37.890624 8.703125zm0 0" fill="#00bcd4"/><g fill="#fec108"><path d="m461.300781 59.734375c0 9.050781-3.59375 17.734375-9.996093 24.136719-6.402344 6.402344-15.085938 10-24.136719 9.996094-4.398438.035156-8.753907-.839844-12.800781-2.558594-12.890626-5.183594-21.332032-17.683594-21.332032-31.574219 0-13.894531 8.441406-26.390625 21.332032-31.574219 4.046874-1.722656 8.402343-2.59375 12.800781-2.558594 9.050781-.003906 17.734375 3.589844 24.136719 9.992188 6.402343 6.402344 9.996093 15.085938 9.996093 24.140625zm0 0"/><path d="m418.632812 162.132812c.003907 9.054688-3.59375 17.738282-9.996093 24.140626-6.398438 6.398437-15.082031 9.996093-24.136719 9.992187-4.398438.035156-8.753906-.835937-12.800781-2.558594-12.886719-5.183593-21.332031-17.679687-21.332031-31.574219 0-13.890624 8.445312-26.390624 21.332031-31.574218 4.046875-1.722656 8.402343-2.59375 12.800781-2.558594 9.054688-.003906 17.738281 3.59375 24.136719 9.996094 6.402343 6.398437 10 15.082031 9.996093 24.136718zm0 0"/><path d="m478.367188 256c.003906 9.054688-3.59375 17.738281-9.996094 24.136719-6.402344 6.402343-15.085938 10-24.136719 9.996093-4.398437.035157-8.753906-.835937-12.800781-2.558593-12.890625-5.183594-21.332032-17.683594-21.332032-31.574219s8.441407-26.390625 21.332032-31.574219c4.046875-1.722656 8.402344-2.59375 12.800781-2.558593 9.050781-.003907 17.734375 3.59375 24.136719 9.996093 6.402344 6.398438 10 15.082031 9.996094 24.136719zm0 0"/><path d="m418.632812 349.867188c.003907 9.054687-3.59375 17.738281-9.996093 24.136718-6.398438 6.402344-15.082031 10-24.136719 9.996094-4.398438.035156-8.753906-.835938-12.800781-2.558594-12.886719-5.183594-21.332031-17.683594-21.332031-31.574218 0-13.894532 8.445312-26.390626 21.332031-31.574219 4.046875-1.722657 8.402343-2.59375 12.800781-2.558594 9.054688-.003906 17.738281 3.59375 24.136719 9.992187 6.402343 6.402344 10 15.085938 9.996093 24.140626zm0 0"/><path d="m461.300781 452.265625c0 9.054687-3.59375 17.738281-9.996093 24.140625-6.402344 6.402344-15.085938 9.996094-24.136719 9.992188-4.398438.035156-8.753907-.835938-12.800781-2.558594-12.890626-5.183594-21.332032-17.679688-21.332032-31.574219 0-13.890625 8.441406-26.390625 21.332032-31.574219 4.046874-1.71875 8.402343-2.59375 12.800781-2.558594 9.050781-.003906 17.734375 3.59375 24.136719 9.996094 6.402343 6.402344 9.996093 15.085938 9.996093 24.136719zm0 0"/></g><path d="m435.699219 59.734375c0-17.4375-9.550781-31.574219-21.332031-31.574219s-21.332032 14.136719-21.332032 31.574219 9.550782 31.574219 21.332032 31.574219 21.332031-14.136719 21.332031-31.574219zm0 0" fill="#ffdc00"/><path d="m393.035156 162.132812c0-17.4375-9.554687-31.574218-21.335937-31.574218s-21.332031 14.136718-21.332031 31.574218 9.550781 31.574219 21.332031 31.574219 21.335937-14.136719 21.335937-31.574219zm0 0" fill="#ffdc00"/><path d="m452.765625 256c0-17.4375-9.550781-31.574219-21.332031-31.574219s-21.332032 14.136719-21.332032 31.574219 9.550782 31.574219 21.332032 31.574219 21.332031-14.136719 21.332031-31.574219zm0 0" fill="#ffdc00"/><path d="m393.035156 349.867188c0-17.4375-9.554687-31.574219-21.335937-31.574219s-21.332031 14.136719-21.332031 31.574219 9.550781 31.574218 21.332031 31.574218 21.335937-14.136718 21.335937-31.574218zm0 0" fill="#ffdc00"/><path d="m435.699219 452.265625c0-17.4375-9.550781-31.574219-21.332031-31.574219s-21.332032 14.136719-21.332032 31.574219 9.550782 31.574219 21.332032 31.574219 21.332031-14.136719 21.332031-31.574219zm0 0" fill="#ffdc00"/><path d="m290.632812 256c.003907 9.054688-3.59375 17.738281-9.996093 24.136719-6.398438 6.402343-15.082031 10-24.136719 9.996093-4.398438.035157-8.753906-.835937-12.800781-2.558593-12.886719-5.183594-21.332031-17.683594-21.332031-31.574219s8.445312-26.390625 21.332031-31.574219c4.046875-1.722656 8.402343-2.59375 12.800781-2.558593 9.054688-.003907 17.738281 3.59375 24.136719 9.996093 6.402343 6.398438 10 15.082031 9.996093 24.136719zm0 0" fill="#cfd8dc"/><path d="m265.035156 256c0-17.4375-9.554687-31.574219-21.335937-31.574219s-21.332031 14.136719-21.332031 31.574219 9.550781 31.574219 21.332031 31.574219 21.335937-14.136719 21.335937-31.574219zm0 0" fill="#f5f5f5"/><path d="m256.5 512h-34.132812c-9.421876-.011719-17.054688-7.644531-17.066407-17.066406v-40.703125c-18.550781-4.730469-36.335937-12.078125-52.816406-21.8125l-28.699219 28.695312c-3.183594 3.25-7.542968 5.078125-12.09375 5.058594h-.015625c-4.582031.011719-8.96875-1.84375-12.152343-5.140625l-48.140626-48.128906c-3.25-3.203125-5.070312-7.582032-5.058593-12.148438.015625-4.5625 1.863281-8.929687 5.132812-12.117187l28.617188-28.617188c-9.734375-16.484375-17.078125-34.269531-21.816407-52.820312h-40.691406c-9.421875-.011719-17.054687-7.644531-17.066406-17.066407v-68.265624c.011719-9.421876 7.644531-17.054688 17.066406-17.066407h40.691406c4.738282-18.550781 12.082032-36.335937 21.816407-52.820312l-28.691407-28.695313c-3.25-3.207031-5.070312-7.585937-5.058593-12.152344.015625-4.5625 1.863281-8.929687 5.132812-12.117187l48.144531-48.132813c3.171876-3.25 7.53125-5.078124 12.074219-5.058593h.015625c4.582032-.011719 8.976563 1.839843 12.167969 5.128906l28.625 28.625c16.480469-9.734375 34.265625-17.078125 52.816406-21.808594v-40.703125c.011719-9.421875 7.644531-17.0546872 17.066407-17.066406h34.132812c4.710938 0 8.535156 3.820312 8.535156 8.535156 0 4.710938-3.824218 8.53125-8.535156 8.53125h-34.132812v47.445313c0 4.011719-2.792969 7.480469-6.707032 8.335937-21.261718 4.660156-41.53125 13.027344-59.886718 24.722656-3.371094 2.144532-7.78125 1.65625-10.605469-1.171874l-33.453125-33.449219-48.265625 48.210937 33.449219 33.503906c2.828124 2.828126 3.316406 7.238282 1.167968 10.609376-11.691406 18.355468-20.0625 38.628906-24.726562 59.882812-.855469 3.917969-4.320313 6.707031-8.328125 6.710938h-47.445313v68.265624h47.445313c4.007812 0 7.476562 2.792969 8.332031 6.707032 4.664062 21.257812 13.035156 41.53125 24.726562 59.886718 2.144532 3.371094 1.660157 7.78125-1.167968 10.605469l-33.449219 33.453125 48.214844 48.265625 33.5-33.449219c2.828125-2.820312 7.230469-3.304687 10.605469-1.171874 18.355468 11.695312 38.625 20.0625 59.886718 24.71875 3.914063.859374 6.707032 4.328124 6.707032 8.339843v47.445313h34.132812c4.710938 0 8.535156 3.820312 8.535156 8.53125 0 4.714844-3.824218 8.535156-8.535156 8.535156zm0 0"/><path d="m256.5 409.601562c-84.832031 0-153.601562-68.769531-153.601562-153.601562s68.769531-153.601562 153.601562-153.601562c4.710938 0 8.535156 3.820312 8.535156 8.535156 0 4.710937-3.824218 8.53125-8.535156 8.53125-75.40625 0-136.535156 61.128906-136.535156 136.535156s61.128906 136.535156 136.535156 136.535156c4.710938 0 8.535156 3.820313 8.535156 8.53125 0 4.714844-3.824218 8.535156-8.535156 8.535156zm0 0"/><path d="m290.632812 512h-34.132812c-4.710938 0-8.535156-3.820312-8.535156-8.535156 0-4.710938 3.824218-8.53125 8.535156-8.53125h34.132812v-47.445313c0-4 2.777344-7.464843 6.683594-8.328125 9.441406-2.0625 18.695313-4.890625 27.675782-8.457031 2.839843-1.21875 6.117187-.800781 8.566406 1.085937 2.445312 1.886719 3.683594 4.953126 3.230468 8.007813-.453124 3.058594-2.523437 5.632813-5.414062 6.730469-7.710938 3.085937-15.621094 5.65625-23.675781 7.695312v40.710938c-.011719 9.421875-7.644531 17.054687-17.066407 17.066406zm0 0"/><path d="m328.179688 81.925781c-1.09375 0-2.179688-.214843-3.191407-.625-8.980469-3.570312-18.234375-6.398437-27.675781-8.460937-3.902344-.863282-6.679688-4.328125-6.679688-8.328125v-47.445313h-34.132812c-4.710938 0-8.535156-3.820312-8.535156-8.53125 0-4.714844 3.824218-8.535156 8.535156-8.535156h34.132812c9.421876.0117188 17.054688 7.644531 17.066407 17.066406v40.710938c8.054687 2.039062 15.964843 4.609375 23.675781 7.699218 3.792969 1.523438 5.96875 5.527344 5.191406 9.542969-.78125 4.011719-4.296875 6.910157-8.386718 6.90625zm0 0"/><path d="m256.5 409.601562c-4.710938 0-8.535156-3.820312-8.535156-8.535156 0-4.710937 3.824218-8.53125 8.535156-8.53125 16.457031.039063 32.78125-2.925781 48.175781-8.746094 4.390625-1.617187 9.261719.609376 10.921875 4.984376s-.515625 9.269531-4.871094 10.972656c-17.328124 6.554687-35.703124 9.894531-54.226562 9.855468zm0 0"/><path d="m307.699219 128.769531c-1.03125 0-2.058594-.191406-3.023438-.558593-15.394531-5.824219-31.71875-8.785157-48.175781-8.746094-4.710938 0-8.535156-3.820313-8.535156-8.53125 0-4.714844 3.824218-8.535156 8.535156-8.535156 18.523438-.039063 36.898438 3.300781 54.226562 9.855468 3.851563 1.460938 6.113282 5.464844 5.371094 9.519532-.742187 4.050781-4.277344 6.996093-8.398437 6.996093zm0 0"/><path d="m145.566406 256c-4.710937 0-8.53125-3.820312-8.53125-8.535156.636719-34.078125 18.179688-65.609375 46.808594-84.113282 4.027344-2.347656 9.195312-1.019531 11.601562 2.972657 2.402344 3.996093 1.15625 9.183593-2.804687 11.648437-23.53125 15.378906-37.953125 41.386719-38.539063 69.492188 0 4.714844-3.820312 8.535156-8.535156 8.535156zm0 0"/><path d="m256.5 298.667969c-23.5625 0-42.667969-19.105469-42.667969-42.667969s19.105469-42.667969 42.667969-42.667969 42.667969 19.105469 42.667969 42.667969c-.027344 23.550781-19.117188 42.640625-42.667969 42.667969zm0-68.269531c-14.136719 0-25.601562 11.464843-25.601562 25.601562s11.464843 25.601562 25.601562 25.601562 25.601562-11.464843 25.601562-25.601562c-.015624-14.132812-11.46875-25.585938-25.601562-25.601562zm0 0"/><path d="m427.167969 102.398438c-23.566407 0-42.667969-19.101563-42.667969-42.664063 0-23.566406 19.101562-42.667969 42.667969-42.667969 23.5625 0 42.664062 19.101563 42.664062 42.667969-.027343 23.550781-19.113281 42.636719-42.664062 42.664063zm0-68.265626c-14.140625 0-25.601563 11.460938-25.601563 25.601563 0 14.136719 11.460938 25.597656 25.601563 25.597656 14.136719 0 25.597656-11.460937 25.597656-25.597656-.015625-14.132813-11.46875-25.585937-25.597656-25.601563zm0 0"/><path d="m384.5 204.800781c-23.5625 0-42.667969-19.101562-42.667969-42.667969 0-23.5625 19.105469-42.667968 42.667969-42.667968s42.667969 19.105468 42.667969 42.667968c-.027344 23.554688-19.117188 42.640626-42.667969 42.667969zm0-68.265625c-14.136719 0-25.601562 11.460938-25.601562 25.597656 0 14.140626 11.464843 25.601563 25.601562 25.601563s25.601562-11.460937 25.601562-25.601563c-.015624-14.132812-11.46875-25.582031-25.601562-25.597656zm0 0"/><path d="m444.234375 298.667969c-23.566406 0-42.667969-19.105469-42.667969-42.667969s19.101563-42.667969 42.667969-42.667969c23.5625 0 42.664063 19.105469 42.664063 42.667969-.027344 23.550781-19.113282 42.640625-42.664063 42.667969zm0-68.269531c-14.140625 0-25.601563 11.464843-25.601563 25.601562s11.460938 25.601562 25.601563 25.601562c14.136719 0 25.597656-11.464843 25.597656-25.601562-.015625-14.132812-11.464843-25.585938-25.597656-25.601562zm0 0"/><path d="m384.5 392.535156c-23.5625 0-42.667969-19.105468-42.667969-42.667968 0-23.566407 19.105469-42.667969 42.667969-42.667969s42.667969 19.101562 42.667969 42.667969c-.027344 23.550781-19.117188 42.636718-42.667969 42.667968zm0-68.269531c-14.136719 0-25.601562 11.460937-25.601562 25.601563 0 14.136718 11.464843 25.597656 25.601562 25.597656s25.601562-11.460938 25.601562-25.597656c-.015624-14.132813-11.46875-25.585938-25.601562-25.601563zm0 0"/><path d="m427.167969 494.933594c-23.566407 0-42.667969-19.101563-42.667969-42.667969 0-23.5625 19.101562-42.664063 42.667969-42.664063 23.5625 0 42.664062 19.101563 42.664062 42.664063-.027343 23.554687-19.113281 42.640625-42.664062 42.667969zm0-68.265625c-14.140625 0-25.601563 11.460937-25.601563 25.597656 0 14.140625 11.460938 25.601563 25.601563 25.601563 14.136719 0 25.597656-11.460938 25.597656-25.601563-.015625-14.132813-11.46875-25.582031-25.597656-25.597656zm0 0"/><path d="m272.875 234.582031c-3.007812-.003906-5.792969-1.59375-7.328125-4.179687-1.535156-2.589844-1.59375-5.796875-.15625-8.4375l34.816406-63.914063c1.496094-2.746093 4.367188-4.453125 7.492188-4.449219h42.667969c4.710937 0 8.53125 3.820313 8.53125 8.53125 0 4.714844-3.820313 8.535157-8.53125 8.535157h-37.601563l-32.390625 59.464843c-1.496094 2.746094-4.375 4.453126-7.5 4.449219zm0 0"/><path d="m350.367188 358.398438h-42.667969c-3.121094.003906-5.996094-1.707032-7.492188-4.449219l-34.8125-63.914063c-2.179687-4.128906-.632812-9.238281 3.460938-11.472656 4.097656-2.234375 9.230469-.761719 11.519531 3.304688l32.390625 59.464843h37.601563c4.710937 0 8.53125 3.820313 8.53125 8.535157 0 4.710937-3.820313 8.53125-8.53125 8.53125zm0 0"/><path d="m410.101562 264.535156h-119.46875c-4.710937 0-8.53125-3.824218-8.53125-8.535156s3.820313-8.535156 8.53125-8.535156h119.46875c4.710938 0 8.53125 3.824218 8.53125 8.535156s-3.820312 8.535156-8.53125 8.535156zm0 0"/><path d="m393.035156 460.800781h-47.667968c-4.523438-.011719-8.859376-1.808593-12.066407-5l-29.132812-29.132812c-3.214844-3.195313-5.011719-7.539063-5-12.066407v-64.734374c0-4.714844 3.820312-8.535157 8.53125-8.535157 4.714843 0 8.535156 3.820313 8.535156 8.535157v64.734374l29.132813 29.132813h47.667968c4.710938 0 8.53125 3.820313 8.53125 8.53125 0 4.714844-3.820312 8.535156-8.53125 8.535156zm0 0"/><path d="m307.699219 170.667969c-4.710938 0-8.53125-3.820313-8.53125-8.535157v-64.734374c-.011719-4.527344 1.785156-8.871094 5-12.066407l29.132812-29.132812c3.207031-3.191407 7.542969-4.988281 12.066407-5h47.667968c4.710938 0 8.53125 3.820312 8.53125 8.535156 0 4.710937-3.820312 8.53125-8.53125 8.53125h-47.667968l-29.132813 29.132813v64.734374c0 4.714844-3.820313 8.535157-8.535156 8.535157zm0 0"/></svg>