<svg height="512" viewBox="0 0 60 51" width="512" xmlns="http://www.w3.org/2000/svg"><g id="Page-1" fill="none" fill-rule="evenodd"><g id="039---Tape-Measure" fill-rule="nonzero" transform="translate(0 -1)"><path id="Shape" d="m43 28v17c0 3.3137085-2.6862915 6-6 6h-24c1.1032019-.0032948 1.9967052-.8967981 2-2v-2.74c.0012483-.7408023-.4117572-1.4201383-1.07-1.76-3.5569318-1.9547377-6.47638079-4.8915437-8.41-8.46-.35007471-.639816-1.02067564-1.0383445-1.75-1.04h-.77c-1.10320187.0032948-1.9967052.8967981-2 2v-9c0-11.5979797 9.4020203-21 21-21 .34 0 .67.01 1 .03 5.2189997.23857301 10.159742 2.42177467 13.85 6.12 3.9467814 3.9328159 6.1605614 9.2782846 6.15 14.85z" fill="#f44335"/><path id="Shape" d="m1 35.031v1.969c.00118833-.6607745.32867184-1.2783148.875-1.65-.26183588-.1750206-.56195749-.2844364-.875-.319z" fill="#c81e1e"/><path id="Shape" d="m39.1 15.8c-.6759826-.9436009-1.4285259-1.8299296-2.25-2.65-3.690258-3.69822533-8.6310003-5.88142699-13.85-6.12-.33-.02-.66-.03-1-.03-.509 0-1.008.041-1.509.076 5.0405945.34417489 9.7860921 2.50183282 13.359 6.074 3.9467814 3.9328159 6.1605614 9.2782846 6.15 14.85v17c0 3.3137085-2.6862915 6-6 6h3c3.3137085 0 6-2.6862915 6-6v-17c.0046734-4.3739597-1.3590032-8.6398201-3.9-12.2z" fill="#c81e1e"/><path id="Shape" d="m15 46.26v2.74c-.0032948 1.1032019-.8967981 1.9967052-2 2h-7c-1.32608245 0-2.59785201-.5267842-3.53553391-1.4644661-.93768189-.9376819-1.46446609-2.2094515-1.46446609-3.5355339v-9c.0032948-1.1032019.89679813-1.9967052 2-2h.77c.72932436.0016555 1.39992529.400184 1.75 1.04 1.93361921 3.5684563 4.8530682 6.5052623 8.41 8.46.6582428.3398617 1.0712483 1.0191977 1.07 1.76z" fill="#607d8b"/><path id="Shape" d="m13.93 44.5c-3.5569318-1.9547377-6.47638079-4.8915437-8.41-8.46-.35007471-.639816-1.02067564-1.0383445-1.75-1.04h-.77c-.4017508.0003121-.79397999.1223389-1.125.35.2675653.1745393.48887449.4112887.645.69 1.93361921 3.5684563 4.85306821 6.5052623 8.41 8.46.6582428.3398617 1.0712483 1.0191977 1.07 1.76v2.74c-.0032948 1.1032019-.8967981 1.9967052-2 2h3c1.1032019-.0032948 1.9967052-.8967981 2-2v-2.74c.0012483-.7408023-.4117572-1.4201383-1.07-1.76z" fill="#37474f"/><path id="Rectangle-path" d="m43 35h11v10h-11z" fill="#ffdc00"/><path id="Rectangle-path" d="m51 35h3v10h-3z" fill="#fec108"/><path id="Shape" d="m59 37v12c-.0032948 1.1032019-.8967981 1.9967052-2 2h-1c-1.1032019-.0032948-1.9967052-.8967981-2-2v-14h3c1.1032019.0032948 1.9967052.8967981 2 2z" fill="#9e9e9e"/><path id="Shape" d="m39.67 8.7-.57 7.1c-.6759826-.9436009-1.4285259-1.8299296-2.25-2.65-3.690258-3.69822533-8.6310003-5.88142699-13.85-6.12l4.6-4.47c.5021283-.49503078 1.2297222-.68550039 1.91-.5 3.450253.99416923 6.6644042 2.67437101 9.45 4.94.4991087.41743711.7639554 1.05157729.71 1.7z" fill="#7f8e94"/><path id="Shape" d="m38.96 7c-2.7855958-2.26562899-5.999747-3.94583077-9.45-4.94-.6164469-.1640294-1.2741586-.01861695-1.764.39 2.9855482 1.01893774 5.7666444 2.55947676 8.214 4.55.4991087.41743711.7639554 1.05157729.71 1.7l-.321 3.993c.165.154.341.3.5.457.82182.8200308 1.5746987 1.7063607 2.251 2.65l.57-7.1c.0539554-.64842271-.2108913-1.28256289-.71-1.7z" fill="#545c60"/><circle id="Oval" cx="36" cy="44" fill="#ff9801" r="3"/><circle id="Oval" cx="22" cy="29" fill="#ff9801" r="10"/><path id="Shape" d="m22 19c-.5024272.0039922-1.0038421.0457768-1.5.125 4.8867805.7347638 8.5012202 4.9332896 8.5012202 9.875s-3.6144397 9.1402362-8.5012202 9.875c3.710451.5677523 7.4261819-.9912669 9.6206899-4.0365787s2.4977618-7.0634251.7851783-10.4036118c-1.7125836-3.3401866-5.152234-5.4392346-8.9058682-5.4348095z" fill="#f57c00"/><path id="Shape" d="m5 29c-.55228475 0-1-.4477153-1-1-.01003736-8.263258 5.61523774-15.4687593 13.634-17.464.3498693-.0959435.72426.0051249.9783171.2641012.2540571.2589762.3479281.635236.2452935.9832013-.1026346.3479652-.385675.6130526-.7396106.6926975-7.1272781 1.7743742-12.12685335 8.1791774-12.118 15.524 0 .5522847-.44771525 1-1 1z" fill="#f5f5f5"/><circle id="Oval" cx="22" cy="11" fill="#f5f5f5" r="1"/><g fill="#000"><path id="Shape" d="m57 34h-13v-6c.0081891-4.4510026-1.3442204-8.7981827-3.876-12.459l.543-6.765c.0787087-.97540828-.3232644-1.92790149-1.077-2.552-2.8907887-2.35295862-6.2282223-4.09600318-9.811-5.124-1.0234151-.28207876-2.1196033.00216053-2.877.746l-4.308 4.183c-.194-.005-.394-.029-.594-.029-12.14455323.01377716-21.98622284 9.8554468-22 22v18c.00330738 3.3123376 2.68766243 5.9966926 6 6h31c3.4765822-.0040745 6.4233474-2.5590733 6.92-6h9.08v3c0 1.6568542 1.3431458 3 3 3h1c1.6568542 0 3-1.3431458 3-3v-12c0-1.6568542-1.3431458-3-3-3zm-28.7-30.726c.2428734-.24526973.5984424-.34179223.932-.253 3.3207684.95453885 6.4141339 2.57095329 9.094 4.752.245675.20971996.3749187.52519386.347.847l-.373 4.642c-.248-.273-.481-.557-.743-.819-3.3331875-3.3401926-7.6594925-5.50966085-12.33-6.183zm-16.3 46.726h-6c-2.209139 0-4-1.790861-4-4v-9c0-.5522847.44771525-1 1-1h.769c.3653792.0000981.70161799.1994643.877.52 2.01628082 3.7533894 5.08584433 6.8354662 8.831 8.867.3226393.172101.5238384.5083305.523.874v2.739c0 .5522847-.4477153 1-1 1zm25 0h-21.184c.1184378-.320257.1806856-.6585603.184-1v-2.739c.0054617-1.116077-.6158642-2.1408011-1.608-2.652-3.3782065-1.8649037-6.15157266-4.6583968-7.992-8.05-.52640942-.9612207-1.53507476-1.5589057-2.631-1.559h-.769c-.34143967.0033144-.67974302.0655622-1 .184v-6.184c0-11.045695 8.954305-20 20-20s20 8.954305 20 20v17c-.0033061 2.7600532-2.2399468 4.9966939-5 5zm7-6v-8h3v2c0 .5522847.4477153 1 1 1s1-.4477153 1-1v-2h4v8zm14 5c0 .5522847-.4477153 1-1 1h-1c-.5522847 0-1-.4477153-1-1v-13h2c.5522847 0 1 .4477153 1 1z"/><path id="Shape" d="m36 40c-2.209139 0-4 1.790861-4 4s1.790861 4 4 4 4-1.790861 4-4-1.790861-4-4-4zm0 6c-1.1045695 0-2-.8954305-2-2s.8954305-2 2-2 2 .8954305 2 2-.8954305 2-2 2z"/><path id="Shape" d="m22 18c-6.0751322 0-11 4.9248678-11 11s4.9248678 11 11 11 11-4.9248678 11-11c-.0071635-6.0721626-4.9278374-10.9928365-11-11zm0 20c-4.9705627 0-9-4.0294373-9-9s4.0294373-9 9-9 9 4.0294373 9 9c-.0055111 4.9682782-4.0317218 8.9944889-9 9z"/></g></g></g></svg>