<svg height="512pt" viewBox="-48 0 512 512" width="512pt" xmlns="http://www.w3.org/2000/svg"><path d="m384.257812 504.5h-352.710937c-13.28125 0-24.046875-10.765625-24.046875-24.046875v-448.90625c0-13.28125 10.765625-24.046875 24.046875-24.046875h352.710937c13.28125 0 24.046876 10.765625 24.046876 24.046875v448.902344c0 13.285156-10.765626 24.050781-24.046876 24.050781zm0 0" fill="#6f6571"/><path d="m39.5625 39.566406h336.679688v432.871094h-336.679688zm0 0" fill="#ff8086"/><path d="m376.242188 39.566406h-336.679688v64.128906h160.324219c4.425781 0 8.015625-3.589843 8.015625-8.015624v-24.050782h64.128906v24.046875c0 4.429688 3.589844 8.015625 8.015625 8.015625h96.195313zm0 0" fill="#eceaec"/><path d="m328.144531 71.628906h-56.113281v24.046875c0 4.429688 3.589844 8.015625 8.015625 8.015625h56.113281v-24.046875c0-4.425781-3.589844-8.015625-8.015625-8.015625zm0 0" fill="#dad8db"/><path d="m207.902344 71.628906h-120.242188c-4.425781 0-8.015625 3.589844-8.015625 8.015625v24.046875h120.242188c4.425781 0 8.015625-3.585937 8.015625-8.015625zm0 0" fill="#dad8db"/><path d="m408.304688 472.433594h-368.742188v-464.933594h-8.015625c-13.28125 0-24.046875 10.765625-24.046875 24.046875v448.902344c0 13.285156 10.765625 24.050781 24.046875 24.050781h352.710937c13.28125 0 24.046876-10.769531 24.046876-24.050781zm0 0" fill="#5d5360"/><path d="m384.257812 0h-352.710937c-17.394531 0-31.546875 14.152344-31.546875 31.546875v448.902344c0 17.398437 14.152344 31.550781 31.546875 31.550781h352.710937c17.394532 0 31.546876-14.152344 31.546876-31.550781v-448.902344c0-17.394531-14.152344-31.546875-31.546876-31.546875zm16.546876 480.449219c0 9.125-7.421876 16.550781-16.546876 16.550781h-352.710937c-9.125 0-16.546875-7.425781-16.546875-16.550781v-448.902344c0-9.125 7.421875-16.546875 16.546875-16.546875h352.710937c9.125 0 16.546876 7.421875 16.546876 16.546875zm0 0"/><path d="m376.242188 32.0625h-336.679688c-4.140625 0-7.5 3.359375-7.5 7.5v384.773438c0 4.144531 3.359375 7.5 7.5 7.5 4.144531 0 7.5-3.355469 7.5-7.5v-313.144532h152.824219c8.554687 0 15.515625-6.957031 15.515625-15.515625v-16.546875h49.128906v16.546875c0 8.558594 6.960938 15.515625 15.515625 15.515625h88.695313v353.742188h-321.679688v-8.53125c0-4.140625-3.355469-7.5-7.5-7.5-4.140625 0-7.5 3.359375-7.5 7.5v16.03125c0 4.144531 3.359375 7.5 7.5 7.5h336.679688c4.140624 0 7.5-3.355469 7.5-7.5v-384.773438c0-4.140625-3.359376-7.5-7.5-7.5-4.140626 0-7.5 3.359375-7.5 7.5v8.53125h-25.082032v-16.546875c0-8.554687-6.960937-15.515625-15.515625-15.515625h-240.484375c-8.554687 0-15.515625 6.960938-15.515625 15.515625v16.546875h-25.082031v-49.128906h321.679688v8.535156c0 4.140625 3.359374 7.5 7.5 7.5 4.140624 0 7.5-3.359375 7.5-7.5v-16.035156c0-4.140625-3.359376-7.5-7.5-7.5zm-175.839844 63.613281c0 .285157-.230469.515625-.515625.515625h-48.613281v-17.0625h49.128906zm128.257812-16.03125v16.546875h-48.613281c-.285156 0-.515625-.230468-.515625-.515625v-16.546875h48.613281c.285157 0 .515625.230469.515625.515625zm-241.515625 0c0-.285156.234375-.515625.515625-.515625h48.613282v17.0625h-49.128907zm0 0"/><path d="m344.175781 128.257812h-272.546875c-4.140625 0-7.5 3.359376-7.5 7.5 0 4.140626 3.359375 7.5 7.5 7.5h272.550782c4.140624 0 7.5-3.359374 7.5-7.5 0-4.140624-3.359376-7.5-7.503907-7.5zm0 0"/><path d="m168.339844 272.03125v64.128906c0 21.816406 17.75 39.566406 39.5625 39.566406 21.816406 0 39.566406-17.75 39.566406-39.566406v-64.128906c0-21.816406-17.75-39.5625-39.566406-39.5625-21.8125 0-39.5625 17.746094-39.5625 39.5625zm64.128906 0v64.128906c0 13.546875-11.023438 24.566406-24.566406 24.566406-13.542969 0-24.5625-11.023437-24.5625-24.566406v-64.128906c0-13.542969 11.019531-24.5625 24.5625-24.5625 13.542968 0 24.566406 11.019531 24.566406 24.5625zm0 0"/><path d="m135.757812 375.726562c4.140626 0 7.5-3.359374 7.5-7.5v-24.566406h8.53125c4.144532 0 7.5-3.355468 7.5-7.5 0-4.140625-3.355468-7.5-7.5-7.5h-8.53125v-88.691406c0-4.140625-3.359374-7.5-7.5-7.5-4.140624 0-7.5 3.359375-7.5 7.5v88.691406h-39.007812l21.71875-86.875c1.003906-4.015625-1.4375-8.089844-5.457031-9.09375-4.011719-1.003906-8.089844 1.4375-9.09375 5.457032l-24.050781 96.195312c-.558594 2.238281-.054688 4.613281 1.367187 6.433594 1.417969 1.820312 3.601563 2.882812 5.910156 2.882812h48.613281v24.566406c0 4.140626 3.359376 7.5 7.5 7.5zm0 0"/><path d="m328.144531 375.726562c4.140625 0 7.5-3.359374 7.5-7.5v-24.566406h8.535157c4.140624 0 7.5-3.355468 7.5-7.5 0-4.140625-3.359376-7.5-7.5-7.5h-8.535157v-88.691406c0-4.140625-3.359375-7.5-7.5-7.5s-7.5 3.359375-7.5 7.5v88.691406h-39.007812l21.71875-86.875c1.003906-4.015625-1.4375-8.089844-5.457031-9.09375-4.011719-1.003906-8.089844 1.4375-9.09375 5.457032l-24.046876 96.195312c-.5625 2.238281-.058593 4.613281 1.363282 6.433594 1.417968 1.820312 3.601562 2.882812 5.910156 2.882812h48.613281v24.566406c0 4.140626 3.359375 7.5 7.5 7.5zm0 0"/></svg>