<svg width="512" height="512" viewBox="0 0 512 512" fill="none" xmlns="http://www.w3.org/2000/svg">
<g clip-path="url(#clip0)">
<path d="M245.344 85.3489H213.345V10.6876C213.345 6.48467 210.892 2.68794 207.053 0.957539C203.17 -0.768958 198.709 -0.0853901 195.596 2.70747L3.60326 173.369C1.34162 175.396 0.0174561 178.295 0.0174561 181.345C0.0174561 184.396 1.34162 187.298 3.60326 189.325L195.596 359.987C198.709 362.78 203.213 363.483 207.053 361.756C210.892 360.006 213.345 356.21 213.345 352.007V277.088C214.388 277.107 215.416 277.15 216.458 277.174C218.954 277.279 221.474 277.342 224.009 277.342C313.138 277.342 405.338 325.215 405.338 405.337C405.338 434.863 384.581 472.174 365.297 494.337C361.926 498.197 361.797 503.915 364.957 507.946C367.047 510.594 370.183 512.001 373.339 512.001C375.023 512.001 376.71 511.594 378.265 510.786C457.004 469.635 511.998 386.798 511.998 309.34C511.998 187.939 389.87 85.3489 245.344 85.3489Z" fill="#FAB51E"/>
<path d="M373.339 512C370.183 512 367.047 510.594 364.957 507.946C361.797 503.938 361.906 498.196 365.297 494.337C384.581 472.174 405.338 434.863 405.338 405.336C405.338 325.214 313.138 277.341 224.009 277.341C221.474 277.341 218.954 277.279 216.458 277.193C215.416 277.173 214.388 277.13 213.345 277.107V352.006C213.345 356.209 210.892 360.006 207.053 361.733C203.213 363.483 198.709 362.756 195.596 359.963L3.60326 189.302C1.34162 187.298 0.0174561 184.396 0.0174561 181.345C0.0174561 178.294 1.34162 175.396 3.60326 173.369L195.596 2.70718C198.709 -0.0856818 203.17 -0.792687 207.053 0.937717C210.892 2.68765 213.345 6.48438 213.345 10.6873V85.3486H245.344C389.87 85.3486 511.998 187.938 511.998 309.34C511.998 386.798 457.004 469.635 378.265 510.786C376.71 511.594 375.023 512 373.339 512V512ZM209.717 255.713C212.17 255.713 214.623 255.776 217.119 255.862C219.404 255.948 221.708 256.01 224.009 256.01C323.634 256.01 426.669 311.86 426.669 405.336C426.669 423.875 420.357 444.292 411.096 463.213C459.481 422.574 490.667 364.358 490.667 309.34C490.667 199.5 378.308 106.684 245.344 106.684H202.678C196.791 106.684 192.01 101.903 192.01 96.0161V34.4286L26.7508 181.345L192.01 328.265V266.678C192.01 261.193 196.17 256.584 201.654 256.053C204.322 255.795 207.01 255.713 209.717 255.713V255.713Z" fill="black"/>
</g>
<defs>
<clipPath id="clip0">
<rect width="512" height="512" fill="white"/>
</clipPath>
</defs>
</svg>
