<svg width="359" height="450" viewBox="0 0 359 450" fill="none" xmlns="http://www.w3.org/2000/svg">
<g clip-path="url(#clip0)">
<path d="M344.238 140.625H166.113C158.351 140.625 152.051 146.925 152.051 154.688C152.051 162.45 158.351 168.75 166.113 168.75H344.238C352.001 168.75 358.301 162.45 358.301 154.688C358.301 146.925 352.001 140.625 344.238 140.625Z" fill="#FF0000"/>
<path d="M344.238 196.875H166.113C158.351 196.875 152.051 203.175 152.051 210.938C152.051 218.7 158.351 225 166.113 225H344.238C352.001 225 358.301 218.7 358.301 210.938C358.301 203.175 352.001 196.875 344.238 196.875Z" fill="#FF0000"/>
<path d="M344.238 253.125H166.113C158.351 253.125 152.051 259.425 152.051 267.188C152.051 274.95 158.351 281.25 166.113 281.25H344.238C352.001 281.25 358.301 274.95 358.301 267.188C358.301 259.425 352.001 253.125 344.238 253.125Z" fill="#FF0000"/>
<path d="M344.238 309.375H166.113C158.351 309.375 152.051 315.675 152.051 323.438C152.051 331.2 158.351 337.5 166.113 337.5H344.238C352.001 337.5 358.301 331.2 358.301 323.438C358.301 315.675 352.001 309.375 344.238 309.375Z" fill="#FF0000"/>
<path d="M344.238 365.625H166.113C158.351 365.625 152.051 371.925 152.051 379.688C152.051 387.45 158.351 393.75 166.113 393.75H344.238C352.001 393.75 358.301 387.45 358.301 379.688C358.301 371.925 352.001 365.625 344.238 365.625Z" fill="#FF0000"/>
<path d="M20.9739 281.25H110.862C122.428 281.25 131.836 266.531 131.836 248.438V173.438C131.836 155.344 122.428 140.625 110.862 140.625H20.9739C9.40829 140.625 0 155.344 0 173.438V248.438C0 266.531 9.40829 281.25 20.9739 281.25Z" fill="#FF0000"/>
<path d="M20.9739 450H110.862C122.428 450 131.836 435.281 131.836 417.188V342.188C131.836 324.094 122.428 309.375 110.862 309.375H20.9739C9.40829 309.375 0 324.094 0 342.188V417.188C0 435.281 9.40829 450 20.9739 450Z" fill="#FF0000"/>
<path d="M344.238 421.875H166.113C158.351 421.875 152.051 428.175 152.051 435.938C152.051 443.7 158.351 450 166.113 450H344.238C352.001 450 358.301 443.7 358.301 435.938C358.301 428.175 352.001 421.875 344.238 421.875Z" fill="#FF0000"/>
<path d="M334.561 0H162.9C149.648 0 138.867 14.7188 138.867 32.8125V79.6875C138.867 97.7813 149.648 112.5 162.9 112.5H334.561C347.813 112.5 358.594 97.7813 358.594 79.6875V32.8125C358.594 14.7188 347.813 0 334.561 0Z" fill="#FF0000"/>
<path d="M56.25 112.5C87.316 112.5 112.5 87.316 112.5 56.25C112.5 25.184 87.316 0 56.25 0C25.184 0 0 25.184 0 56.25C0 87.316 25.184 112.5 56.25 112.5Z" fill="#FF0000"/>
</g>
<defs>
<clipPath id="clip0">
<rect width="358.594" height="450" fill="white"/>
</clipPath>
</defs>
</svg>
