<svg xmlns="http://www.w3.org/2000/svg" xmlns:xlink="http://www.w3.org/1999/xlink" xml:space="preserve" y="0" x="0" id="圖層_1" version="1.1" preserveAspectRatio="xMidYMid" style="margin-top:0px;margin-right:0px;margin-bottom:0px;margin-left:0px;display:block;shape-rendering:auto;background-position-x:0%;background-position-y:0%;background-size:auto;background-origin:padding-box;background-clip:border-box;background:scroll rgba(0, 0, 0, 0) none  repeat;width:200px;height:200px;;animation:none" viewBox="16 19.52 68 60.96"><g class="ldl-scale" style="transform-origin:50px 50px;transform:matrix(0.8, 0, 0, 0.8, 0, 0);;animation:none"><g class="ldl-ani"><g class="ldl-layer"><g class="ldl-ani" style="transform:matrix(1, 0, 0, 1, 0, 0);transform-box:view-box;animation-duration:1s;animation-timing-function:linear;animation-delay:-0.75s;animation-iteration-count:infinite;animation-direction:normal;animation-fill-mode:forwards;animation-play-state:paused;animation-name:animate;animation-timeline:auto;animation-range-start:normal;animation-range-end:normal;transform-origin:50px 50px;;animation:none"><path fill="#d1d1d1" d="M74.23 88.098a6.585 6.585 0 0 1-4.688-1.938L50.515 67.133l-18.01 18.009c-1.249 1.25-2.914 1.938-4.688 1.938s-3.439-.688-4.688-1.938l-2.37-2.37a6.636 6.636 0 0 1 0-9.375l18.009-18.01-7.56-7.561-2.36 2.359c-1.917 1.917-5.276 3.318-7.988 3.33l-6.832.031c-1.816 0-3.479-.703-4.712-1.981a6.445 6.445 0 0 1-1.812-4.75l.26-7.273c.096-2.675 1.539-5.989 3.431-7.882l17.82-17.82a6.585 6.585 0 0 1 4.688-1.938c1.774 0 3.438.688 4.688 1.938l8.713 8.713a6.583 6.583 0 0 1 1.938 4.688 6.583 6.583 0 0 1-1.938 4.688l-4.15 4.15 7.561 7.561 7.046-7.046-4.665-4.665a6.581 6.581 0 0 1-1.938-4.688c0-1.774.688-3.439 1.938-4.688l8.713-8.713c1.25-1.249 2.915-1.938 4.688-1.938s3.438.688 4.688 1.938l17.818 17.818c1.892 1.892 3.335 5.207 3.431 7.881l.26 7.274a6.448 6.448 0 0 1-1.812 4.75A6.446 6.446 0 0 1 86 53.544l-6.862-.031c-2.711-.012-6.07-1.413-7.988-3.33l-1.844-1.845-7.046 7.046 19.03 19.029a6.637 6.637 0 0 1 0 9.376l-2.371 2.371a6.589 6.589 0 0 1-4.689 1.938z" style="stroke-width:1px;fill:rgb(255, 255, 255);;animation:none"/></g></g>
<g class="ldl-layer"><g class="ldl-ani" style="transform:matrix(1, 0, 0, 1, 0, 0);transform-box:view-box;animation-duration:1s;animation-timing-function:linear;animation-delay:-1s;animation-iteration-count:infinite;animation-direction:normal;animation-fill-mode:forwards;animation-play-state:paused;animation-name:animate;animation-timeline:auto;animation-range-start:normal;animation-range-end:normal;transform-origin:50px 50px;;animation:none"><path fill="#454545" d="M66.963 45.996a3.325 3.325 0 0 1 4.688 0l1.844 1.844c1.289 1.289 3.835 2.351 5.659 2.359l6.832.031a3.167 3.167 0 0 0 3.196-3.298l-.26-7.273c-.066-1.822-1.174-4.368-2.463-5.657l-6.376-6.376-3.698-3.698-3.698-3.698-4.046-4.046a3.325 3.325 0 0 0-4.688 0l-8.713 8.713a3.325 3.325 0 0 0 0 4.688l4.665 4.665a3.325 3.325 0 0 1 0 4.688l-7.046 7.046a3.325 3.325 0 0 1-4.688 0l-7.561-7.561a3.325 3.325 0 0 1 0-4.688l4.15-4.15a3.325 3.325 0 0 0 0-4.688l-8.713-8.713a3.325 3.325 0 0 0-4.688 0l-4.045 4.046-3.699 3.698-3.698 3.698-6.376 6.376c-1.289 1.289-2.398 3.834-2.463 5.657l-.26 7.273a3.167 3.167 0 0 0 3.196 3.298l6.832-.031c1.823-.008 4.37-1.069 5.659-2.359l2.359-2.359a3.325 3.325 0 0 1 4.688 0l7.561 7.561a3.325 3.325 0 0 1 0 4.688l-18.01 18.01a3.325 3.325 0 0 0 0 4.688l2.371 2.37a3.325 3.325 0 0 0 4.688 0L48.171 64.79a3.325 3.325 0 0 1 4.688 0l19.027 19.027a3.325 3.325 0 0 0 4.688 0l2.371-2.371a3.325 3.325 0 0 0 0-4.688L59.919 57.731a3.325 3.325 0 0 1 0-4.688l7.044-7.047z" style="stroke-width:1px;fill:rgb(255, 0, 0);;animation:none"/></g></g>
<metadata xmlns:d="https://loading.io/stock/"/></g></g>
<STYLE type="text/css">@keyframes animate { 0.00% {animation-timing-function: cubic-bezier(0.33,0.00,0.67,0.00);transform: translate(0.00px,0.00px) rotate(0.00deg) scale(1.00, 1.00) skew(0deg, 0.00deg) ;opacity: 1.00;}50.00% {animation-timing-function: cubic-bezier(0.33,0.00,0.67,0.00);transform: translate(0.00px,0.00px) rotate(0.00deg) ;}100.00% {animation-timing-function: cubic-bezier(0.33,0.00,0.67,0.00);transform: translate(0.00px,0.00px) rotate(0.00deg) ;} }</STYLE><!-- [ldio] generated by https://loading.io --></svg>