<?xml version="1.0" encoding="utf-8"?><svg xml:space="preserve" viewBox="0 0 100 100" y="0" x="0" xmlns="http://www.w3.org/2000/svg" id="Layer_1" version="1.1" width="200px" height="200px" xmlns:xlink="http://www.w3.org/1999/xlink" style="width:100%;height:100%;background-size:initial;background-repeat-y:initial;background-repeat-x:initial;background-position-y:initial;background-position-x:initial;background-origin:initial;background-color:initial;background-clip:initial;background-attachment:initial;animation-play-state:paused" ><g class="ldl-scale" style="transform-origin:50% 50%;transform:rotate(0deg) scale(0.8, 0.8);animation-play-state:paused" ><path fill="#323232" d="M50 78.902c-.499 0-.998-.2-1.365-.601l-31.21-25.24h-5.568c-1.612 0-2.455 1.916-1.365 3.104l38.144 32.803c.367.4.866.601 1.365.601s.998-.2 1.365-.601L89.51 56.165c1.089-1.188.247-3.104-1.365-3.104h-5.568l-31.21 25.24a1.85 1.85 0 0 1-1.367.601z" id="XMLID_787_" style="fill:rgb(255, 0, 0);animation-play-state:paused" ></path>
<path fill="#999998" d="M50 57.569c-.499 0-.998-.2-1.365-.601l-31.21-25.24h-5.568c-1.612 0-2.455 1.916-1.365 3.104l38.144 32.803c.367.4.866.601 1.365.601s.998-.2 1.365-.601L89.51 34.832c1.089-1.188.247-3.104-1.365-3.104h-5.568l-31.21 25.24a1.85 1.85 0 0 1-1.367.601z" id="XMLID_786_" style="fill:rgb(255, 189, 68);animation-play-state:paused" ></path>
<path fill="#cccccb" d="M50 36.21c-.499 0-.998-.2-1.365-.601l-31.21-25.24h-5.568c-1.612 0-2.455 1.916-1.365 3.104l38.144 32.803c.367.4.866.601 1.365.601s.998-.2 1.365-.601L89.51 13.473c1.089-1.188.247-3.104-1.365-3.104h-5.568l-31.21 25.24A1.85 1.85 0 0 1 50 36.21z" id="XMLID_785_" style="fill:rgb(0, 202, 78);animation-play-state:paused" ></path>
<metadata xmlns:d="https://loading.io/stock/" style="animation-play-state:paused" ><d:name style="animation-play-state:paused" >down</d:name>


<d:tags style="animation-play-state:paused" >south,download,bottom,direction,way,dart,chevron,down,arrow</d:tags>


<d:license style="animation-play-state:paused" >by</d:license>


<d:slug style="animation-play-state:paused" >lq510q</d:slug></metadata></g><!-- generated by https://loading.io/ --></svg>